<svg xmlns="http://www.w3.org/2000/svg" viewBox="0 0 490 560"><title>Ace / Aro</title><g id="Layer_2" data-name="Layer 2"><g id="Layer_1-2" data-name="Layer 1"><g id="Layer_1-2-2" data-name="Layer 1-2"><path d="M331,54.2S290.2,0,245,0s-85.9,54.2-85.9,54.2S0,226.7,0,315c0,96.6,43.3,122.5,140,122.5a175.62,175.62,0,0,0,60.8-10.9L175,542.5A17.46,17.46,0,0,0,192.5,560h105A17.46,17.46,0,0,0,315,542.5h0L289.3,426.6A174.65,174.65,0,0,0,350,437.5c96.6,0,140-25.9,140-122.5,0-88.3-159-260.8-159-260.8Z"/></g></g></g></svg>