<svg xmlns="http://www.w3.org/2000/svg" viewBox="0 0 490.08 297.63"><title>Bisexual</title><g id="Layer_2" data-name="Layer 2"><g id="Layer_1-2" data-name="Layer 1"><path d="M395.78,108a95,95,0,0,0-35.39,6.9L322.62,48.83V34.12L334.7,22h0A12.9,12.9,0,0,0,316.45,3.78L300.94,19.3,279.88,37.63A13,13,0,0,0,291,60L275.11,89.54H135.35L130.8,75.69h14a12.91,12.91,0,0,0,0-25.81H100.3A12.92,12.92,0,0,0,87.39,62.79a13.59,13.59,0,0,0,16.23,12.9L115,110.19h0a94.81,94.81,0,1,0,73.75,105.54h14.35A29.06,29.06,0,0,0,234,231.42l7.92,6.37a12.89,12.89,0,0,0,20,16.18l6.26-6.8a12.54,12.54,0,0,0,4.05-4.39l6.7-7.27a12.93,12.93,0,1,0-19.61-16.82h0l-3-2.41c-1.13-.84-1.14-.77-.62-1.73h0a29.78,29.78,0,0,0-2.89-28.5c1.14-2.1,57.86-108.23,57.3-107.09.61,1.1,27.89,48.79,27.88,48.79h0a94.78,94.78,0,0,0,59.4,169.87C521.83,290.68,520.67,113,395.78,108Zm-233.14,81.9H118.88L143,153.41h0a68.9,68.9,0,0,1,19.69,36.5ZM94.9,271.81a69,69,0,1,1,26.54-132.66L84.13,195.71a13,13,0,0,0,10.77,20h67.74A69.08,69.08,0,0,1,94.9,271.81Zm135-98a28.55,28.55,0,0,0-26.83,16.06H188.73a94.84,94.84,0,0,0-42.25-66.53l-2.64-8H261.25Zm165.84,98c-63.74.32-93.09-80.92-44.8-121.36l33.59,58.77h0A12.93,12.93,0,0,0,407,196.4l-33.64-58.77a68.56,68.56,0,0,1,22.39-3.81c91.4,3.47,91.38,134.53,0,138Z"/></g></g></svg>