<svg xmlns="http://www.w3.org/2000/svg" viewBox="0 0 386.4 489.65"><g id="Layer_2" data-name="Layer 2"><g id="Layer_1-2" data-name="Layer 1"><path d="M386.4,367.5v-217A51.75,51.75,0,0,0,371,113.4l-98-98A51.7,51.7,0,0,0,235.9,0H122.5A52.66,52.66,0,0,0,70,52.5V69.65H52.5A52.65,52.65,0,0,0,0,122.15v315a52.66,52.66,0,0,0,52.5,52.5H263.9a52.66,52.66,0,0,0,52.5-52.5V420h17.5A52.65,52.65,0,0,0,386.4,367.5ZM267.92,59.68l58.8,58.8h-41.3a17.54,17.54,0,0,1-17.5-17.5ZM281.4,437.16a17.55,17.55,0,0,1-17.5,17.5H52.5A17.55,17.55,0,0,1,35,437.16v-315a17.54,17.54,0,0,1,17.5-17.5H70V367.51A52.65,52.65,0,0,0,122.5,420H281.4Zm70-69.65A17.55,17.55,0,0,1,333.9,385H122.5a17.54,17.54,0,0,1-17.5-17.5v-315A17.55,17.55,0,0,1,122.5,35H232.93v66a52.65,52.65,0,0,0,52.5,52.5h66v214Z"/></g></g></svg>