<svg xmlns="http://www.w3.org/2000/svg" viewBox="0 0 470.41 291.2"><g id="Layer_2" data-name="Layer 2"><g id="Layer_1-2" data-name="Layer 1"><path d="M235.2,0C173.6,0,116.41,29.83,74,61.25,49.35,81.43,24.57,100.6,7.52,125.82,3.71,131.51,0,134.63,0,145.6s3.71,13.91,7.52,19.6C25.91,190.42,52,213.36,74,229.77,116.41,261.2,173.6,291.2,235.2,291.2s118.79-30,161.18-61.43c24.76-20.07,49.33-39.38,66.33-64.57,3.81-5.69,7.7-8.63,7.7-19.6s-3.89-14.09-7.7-19.78c-18.19-25.31-44.37-48.17-66.33-64.57C354,29.83,296.81,0,235.2,0Zm19.08,34.82c44.19,5.41,88.23,28.41,122.15,53.56,21.85,17.49,42.45,34.1,58.45,56.17-14,24.1-39.79,44.15-58.45,58.1a339,339,0,0,1-44.63,28A128.17,128.17,0,0,0,364,145.6a133.37,133.37,0,0,0-.87-14.35A72.72,72.72,0,1,1,254.27,34.82ZM138.6,60.55a128.42,128.42,0,0,0,0,170.1,339,339,0,0,1-44.63-28c-21.85-17.49-42.46-34.11-58.45-56.17,14-24.08,39.75-44.12,58.45-58.1A335.15,335.15,0,0,1,138.6,60.55Z"/></g></g></svg>