<svg xmlns="http://www.w3.org/2000/svg" viewBox="0 0 350.01 348.7"><g id="Layer_2" data-name="Layer 2"><g id="_3-Contents" data-name="3-Contents"><path d="M332.5,157.35H154.35a52.5,52.5,0,0,0-98.53,0h-38A17.8,17.8,0,0,0,5.4,162.19a17.54,17.54,0,0,0,0,25.32,17.82,17.82,0,0,0,12.43,4.84H55.65a52.5,52.5,0,0,0,98.52,0h178a17.77,17.77,0,0,0,12.05-4.49,17.51,17.51,0,0,0-11.73-30.51ZM105,192.2a17.5,17.5,0,1,1,12.38-5.13A17.5,17.5,0,0,1,105,192.2Zm227.5,87.15H259.35a52.5,52.5,0,0,0-98.52,0H17.51A17.18,17.18,0,0,0,7,282.79,17.59,17.59,0,0,0,7,310.9a17.19,17.19,0,0,0,10.49,3.45H160.66a52.5,52.5,0,0,0,98.52,0H332.5A17.17,17.17,0,0,0,343,310.9a17.6,17.6,0,0,0-.9-28.76,16.55,16.55,0,0,0-9.34-2.79ZM210,314.7a17.5,17.5,0,1,1,12.38-5.13A17.5,17.5,0,0,1,210,314.7ZM17.5,69.35H213.15a52.5,52.5,0,0,0,98.53,0h20.5a17.8,17.8,0,0,0,12.42-4.84,17.54,17.54,0,0,0,0-25.32,17.8,17.8,0,0,0-12.42-4.84H311.85a52.5,52.5,0,0,0-98.52,0H17.83a17.85,17.85,0,0,0-12,4.48A17.52,17.52,0,0,0,17.51,69.35Zm245-34.65a17.5,17.5,0,1,1-12.37,5.12A17.53,17.53,0,0,1,262.5,34.7Z"/></g></g></svg>