<svg xmlns="http://www.w3.org/2000/svg" viewBox="0 0 380.32 561.28"><defs><style>.cls-1{fill-rule:evenodd;}</style></defs><g id="Layer_2" data-name="Layer 2"><g id="Layer_1-2" data-name="Layer 1"><path class="cls-1" d="M107.79,186.88c-32-115.2,44.8-240,156.8-163.2v3.2c-179.2,76.8,348.8,300.8-16,534.4,0,0-3.2,0,0-3.2,41.6-44.8,73.6-102.4,35.2-160-19.2,28.8-48,38.4-80,28.8v-3.2c44.8-57.6,38.4-112-16-163.2,22.4,124.8-166.4,112-64,297.6a3.13,3.13,0,0,1-3.2,3.2c-291.2-179.2,57.6-294.4-102.4-358.4v-3.2c28.8-19.2,57.6-25.6,89.6-12.8Z"/></g></g></svg>