<svg xmlns="http://www.w3.org/2000/svg" viewBox="0 0 532.01 426.23"><g id="Layer_2" data-name="Layer 2"><g id="Layer_1-2" data-name="Layer 1"><path d="M516.14,0H16.3C7.54,0,0,6.67,0,15.42V349.23a16.46,16.46,0,0,0,16.3,16.11H213.12c-.23,5-1.8,26.61-12.07,37.09-8.09,8.23-19.34,16-14.94,19.95,1.06,2.44,6.11,3.85,17.58,3.85H333.18c13.07,0,17.63-2.14,17.68-5.34h-.45v-1.05H350c-.59-4.31-9.31-10.68-15.91-17.4C323.77,392,322.21,370.38,322,365.35H516.16A16.07,16.07,0,0,0,532,349.24V15.42C532,6.66,524.9,0,516.15,0ZM266,350a10.34,10.34,0,1,1,10.34-10.34A10.33,10.33,0,0,1,266,350Zm243.57-54.07H22.45V21.38H509.57V295.92Z"/><path d="M63.46,74H468.55v4.8H63.46Z"/><path d="M63.46,91.05H468.55v4.79H63.46Z"/><path d="M63.46,107.87H468.55v4.81H63.46Z"/><path d="M140,255.82a13.93,13.93,0,0,0,11.87-21.28l57.76-57.81a13.93,13.93,0,0,0,17.18-1.93l62.33,39a13.95,13.95,0,1,0,26-.94L383,163.12a13.66,13.66,0,1,0-3.8-5.14l-67.79,49.76a13.93,13.93,0,0,0-18.9.7l-62.32-39.05a14.14,14.14,0,0,0,.75-4.49,14,14,0,1,0-25.83,7.34L147.29,230a13.95,13.95,0,1,0-7.33,25.8Z"/></g></g></svg>