<svg xmlns="http://www.w3.org/2000/svg" viewBox="0 0 305.61 318.95"><g id="Layer_2" data-name="Layer 2"><g id="_1_-_Contents" data-name="1 - Contents"><path d="M106.4,0a94.57,94.57,0,0,1,15.11,6.86c10.16,6.85,14.26,17.49,14.35,29.73q.27,34.23,0,68.42c0,15-6.46,26.54-19.61,33h0a38.38,38.38,0,0,1-15.79,3.41c-21.64.38-43.3.25-64.93,0-18.08,0-30.59-10.55-35-28.87h0c-.14-.58-.39-1.14-.55-1.69V30.86c.23-.74.5-1.47.68-2.2C2.74,20,6.41,12.12,13.9,7.31A118.64,118.64,0,0,1,29.63,0Z"/><path d="M0,207.56a109.31,109.31,0,0,1,7.38-16.22,29.23,29.23,0,0,1,25.18-13.8c23.31-.25,46.6-.16,69.91,0h0a33,33,0,0,1,24.11,10.58,35.91,35.91,0,0,1,9.55,25.37c.15,23.07.27,46.17,0,69.24-.28,20.68-13.74,35.34-33.48,35.82-22.91.54-45.89.51-68.78,0-17.13-.45-28.67-10.8-33-28A10.93,10.93,0,0,0,0,288.34V207.56Z"/><path d="M275.68,0a42.84,42.84,0,0,1,17.16,7.94,32.5,32.5,0,0,1,12.24,24.37c.43,19.63.28,39.29.34,59v15h0a36,36,0,0,1-10.32,25.31,33.16,33.16,0,0,1-24.62,9.93c-21.91,0-43.82.19-65.72,0-19.95-.25-34.21-14.08-34.7-34.57-.58-24.13-.52-48.28,0-72.4C170.4,17,180.68,4.91,197.2.7a11.69,11.69,0,0,0,1.68-.7Z"/><path d="M305.42,247.8c0,12.74.43,25.49,0,38h0a34.19,34.19,0,0,1-9.4,22.54,31.52,31.52,0,0,1-21.62,9.77q-36.67.9-73.34,0h0a31.18,31.18,0,0,1-21.35-9.77A33.85,33.85,0,0,1,170.47,286q-.83-38.25,0-76.48h0a33.84,33.84,0,0,1,9.2-22.34A31.21,31.21,0,0,1,201,177.4q36.66-.85,73.58,0a31.48,31.48,0,0,1,21.2,9.77,34.12,34.12,0,0,1,9.36,22.1c.55,12.75,0,25.49,0,38.24Z"/></g></g></svg>