<svg xmlns="http://www.w3.org/2000/svg" viewBox="0 0 381.35 397.76"><g id="Layer_2" data-name="Layer 2"><g id="Layer_1-2" data-name="Layer 1"><path d="M101.64,103c6.94-10.64,13.88-21.34,20.94-32-2.91-4.76-5.77-9.63-8.68-14.39C106.62,44.51,99.06,41.32,89.54,46,79.57,51,76.83,58.9,83.77,71.5,89.6,82.08,95.59,92.61,101.64,103Z"/><path d="M84.89,134.22a7.49,7.49,0,0,0,5.82-3l5.21-7a7.15,7.15,0,0,0-.06-8.17,30.51,30.51,0,0,0-8.73-8.57,6.73,6.73,0,0,0-7.22,0A6.83,6.83,0,0,0,76.55,114l1,13.66a7.58,7.58,0,0,0,7.34,6.61Z"/><path d="M133.89,53.69c7-10.64,14-21.34,21-32-1.46-2.52-3-5-4.48-7.5C143.85,3.4,136.07-.13,127.5,3.4,116,8.05,113.05,18.86,120.28,31.06c4.54,7.56,9.07,15.07,13.61,22.63Z"/><path d="M365,293.65l-3-4.93-7.73-13a73.92,73.92,0,0,0,3.59-9.13,97.22,97.22,0,0,0,2.91-10.47,108,108,0,0,0,2.4-21.56c.45-41.89-.78-83.89-1.84-125.83-.28-11.48-7.56-19-16.52-19.49-7.9-.45-14.34,3.75-17.47,11.48a23.54,23.54,0,0,1,7.11,5.88,44.21,44.21,0,0,1,4,52.92q-45.52,72.57-93,144a172.23,172.23,0,0,1-20.88,26,159.77,159.77,0,0,1-14.9,13.56c.73.22,1.34.55,2.13.83a97.16,97.16,0,0,0,11,3.14l10.07,16.74,2.41,4,18.09,29.68,128.07-76.89Z"/><path d="M273.73,226.45c16.74-25.59,33.65-51.13,50.23-76.83,2.8-4.43,7.5-10.87,6.5-18.54-.79-5.6-3.64-8.9-8-11.81-3.69-2.69-11.76-2.07-16.41.22-5,2.47-8.84,8.18-12.2,13.16-7.9,11.71-15.57,23.58-23.3,35.39-3.75,5.72-7.56,11.43-11.37,17.14-4.14,6-11.93,22.85-21.28,16.3-8.62-6,2.69-19.6,6.22-25,3.81-5.71,7.62-11.53,11.25-17.3,17.25-26.94,34.84-53.7,51.3-81.09,7.45-12.38,5-20.33-4.82-25.7C292.6,47.25,285,50.22,277.2,62Q247,108.06,217,154.1c-2.86,4.26-4.54,7.9-9.86,9.69-3.93,1.23-7.79.55-9.3-3.48-2.46-6.77-.5-10.36,3.08-15.79q35.44-54.09,70.9-108.36c7.73-11.87,5.21-22.79-6-27.89-8.51-3.86-16.41-.61-23.41,9.86q-36.12,55.11-72.07,110.21c-3.92,6-8.57,11.09-15.57,6.16-6.72-4.65-2.85-10.7.56-16.07q28-42.25,55.61-84.9c2.41-3.75,4.93-7.67,6.27-11.93C220,12,213.42,2.06,203.56.32c-10.14-1.79-15.06,4.2-19.77,11.43C152.37,60,121,108.18,89,156.12c-2.91,4.36-9.07,9.51-13.61,9.46-8.45-.28-7.5-9-8.06-15.23-1.29-15.4-2-30.8-3.59-46.2-1.23-11.81-8.62-18.71-18.53-18.59-9,.11-16.58,7.39-17.31,18.76-2.63,41.94-5.48,83.89-6.72,125.83a101.33,101.33,0,0,0,1.57,21.51,92.91,92.91,0,0,0,5.77,19.88l-8.29,12.59L17,289.06,0,315.89l125,81.87,18.87-29.57,2.52-3.92,10.7-16.35a90.54,90.54,0,0,0,11.2-2.69,86.41,86.41,0,0,0,12.54-4.93c18.09-8.73,32.7-23.13,45-40.82,16.52-24,32-48.61,47.93-73Z"/></g></g></svg>