<svg xmlns="http://www.w3.org/2000/svg" viewBox="0 0 95 95"><g id="Layer_2" data-name="Layer 2"><g id="Layer_1-2" data-name="Layer 1"><path d="M47.5,0A47.5,47.5,0,1,0,95,47.5,47.54,47.54,0,0,0,47.5,0Zm8.7,66.6a18.25,18.25,0,0,1-7.9,9.3A10.34,10.34,0,0,1,43,77.3c-.6,0-4.6-.2-6.3-3.4a5.78,5.78,0,0,1-.5-4.1l7.5-27.6H39.9a1.08,1.08,0,0,1-1-.8l-.2-1.6a1,1,0,0,1,.8-1.1L55,36.1a1,1,0,0,1,1.1,1.2L47.9,67.8a1.44,1.44,0,0,0,2.4,1.4h0a14.7,14.7,0,0,0,3.1-4.1,1,1,0,0,1,1.4-.4c.4.2.7.5,1.1.7A1.31,1.31,0,0,1,56.2,66.6ZM52.3,30.9A6.7,6.7,0,1,1,59,24.2,6.7,6.7,0,0,1,52.3,30.9Z"/></g></g></svg>