<svg xmlns="http://www.w3.org/2000/svg" viewBox="0 0 467.28 223.34"><g id="Layer_2" data-name="Layer 2"><g id="Layer_1-2" data-name="Layer 1"><path d="M463.66,93.78,341.13,5.3a26.62,26.62,0,0,0-33.15,1L243.8,57.72a16.06,16.06,0,0,1-20.5,0L159.13,6.31c-10-7.95-22.85-8.4-33.15-1L3.68,93.78c-5.16,3.69-4.82,12.77.55,16l138.66,92c47.94,28.78,133.5,28.78,181.33,0L463,109.69c5.49-3.25,5.72-12.21.67-15.91Zm-146.61,30.8L266.65,144c-17.36,6.05-48.5,6.17-65.86.12l-50.51-19.15c-1.9-.68-2-2.58-.22-3.36L194.52,103a15.4,15.4,0,0,1,12,.23l23.3,10.75a9.39,9.39,0,0,0,7.39,0l23.29-10.75a15.35,15.35,0,0,1,12-.23l44.57,18.37c2,.68,1.9,2.58,0,3.25Z"/></g></g></svg>