<svg xmlns="http://www.w3.org/2000/svg" viewBox="0 0 480.14 381"><g id="Layer_2" data-name="Layer 2"><g id="_1_-_Contents" data-name="1 - Contents"><path d="M33.5,0A33.51,33.51,0,0,0,.07,31.27C-1.21,50.9,14.63,67,34.3,67H445.84c19.67,0,35.52-16.1,34.23-35.73A33.5,33.5,0,0,0,446.64,0Zm0,157A33.51,33.51,0,0,0,.07,188.27C-1.22,207.9,14.63,224,34.3,224H445.84c19.67,0,35.52-16.1,34.23-35.73A33.5,33.5,0,0,0,446.64,157Zm0,157A33.51,33.51,0,0,0,.07,345.27C-1.22,364.9,14.63,381,34.3,381H445.84c19.67,0,35.52-16.1,34.23-35.73A33.5,33.5,0,0,0,446.64,314Z"/></g></g></svg>