<svg xmlns="http://www.w3.org/2000/svg" viewBox="0 0 448 448"><g id="Layer_2" data-name="Layer 2"><g id="_3-Contents" data-name="3-Contents"><path d="M224,0C100.35,0,0,100.35,0,224S100.35,448,224,448,448,347.65,448,224,347.65,0,224,0Zm88.77,245.13h-67.5V312c0,12.13-9.92,22.39-22.05,22.09a21.44,21.44,0,0,1-20.95-21.49V245.13h-66.9c-12.12,0-22.38-9.93-22.08-22a21.44,21.44,0,0,1,21.49-21h67.49v-67.5a21.45,21.45,0,0,1,21-21.49c12.12-.3,22,10,22,22.08v66.91h67.49a21.5,21.5,0,0,1,0,43Z"/><rect x="161.27" y="95.13" width="146" height="107"/><rect x="161.27" y="245.13" width="126" height="98"/></g></g></svg>