<svg xmlns="http://www.w3.org/2000/svg" viewBox="0 0 559.99 560"><title>Documentary / Arthouse</title><g id="Layer_2" data-name="Layer 2"><g id="Layer_1-2" data-name="Layer 1"><path d="M280,0C125.36,0,0,125.37,0,280S125.36,560,280,560,560,434.63,560,280,434.62,0,280,0ZM423.63,418.17a29.05,29.05,0,0,1-29.05,29.05H165.42a29.05,29.05,0,0,1-29-29.05V140.6a29.05,29.05,0,0,1,29-29H394.58a29.05,29.05,0,0,1,29.05,29.05Z"/><path d="M342.09,301.46H217.92a13.24,13.24,0,0,0-13.24,13.24v77A13.24,13.24,0,0,0,217.92,405H342.09a13.24,13.24,0,0,0,13.24-13.24v-77a13.24,13.24,0,0,0-13.24-13.24Z"/><path d="M158.25,210.8h25v29h-25Z"/><path d="M158.25,156.14h25v29.05h-25Z"/><path d="M158.25,374.81h25v29.05h-25Z"/><path d="M158.25,320.14h25v29.05h-25Z"/><path d="M158.25,265.48h25v29h-25Z"/><path d="M342.09,153.8H217.92A13.24,13.24,0,0,0,204.68,167v77a13.24,13.24,0,0,0,13.24,13.24H342.09a13.24,13.24,0,0,0,13.24-13.24V167a13.23,13.23,0,0,0-13.24-13.23Z"/><path d="M376.92,156.14h25v29.05h-25Z"/><path d="M376.92,374.81h25v29.05h-25Z"/><path d="M376.92,210.8h25v29h-25Z"/><path d="M376.92,320.14h25v29.05h-25Z"/><path d="M376.92,265.48h25v29h-25Z"/></g></g></svg>