<?xml version="1.0" encoding="UTF-8"?>
<svg width="1200pt" height="1200pt" version="1.1" viewBox="0 0 1200 1200" xmlns="http://www.w3.org/2000/svg">
 <g>
  <path d="m258.09 101.46c-26.246 0-47.523 21.277-47.523 47.527v898.52c0 26.25 21.277 47.527 47.523 47.527h233.26c26.246 0 47.527-21.277 47.527-47.527v-898.52c0-26.25-21.281-47.527-47.527-47.527z"/>
  <path d="m717.09 101.46c-26.246 0-47.523 21.277-47.523 47.527v898.52c0 26.25 21.277 47.527 47.523 47.527h233.26c26.246 0 47.523-21.277 47.523-47.527v-898.52c0-26.25-21.277-47.527-47.523-47.527z"/>
 </g>
</svg>
