<?xml version="1.0" encoding="UTF-8"?>
<svg width="700pt" height="700pt" version="1.1" viewBox="0 0 700 700" xmlns="http://www.w3.org/2000/svg" xmlns:xlink="http://www.w3.org/1999/xlink">
 <defs>
  <symbol id="w" overflow="visible">
   <path d="m18.766-1.125c-0.96875 0.5-1.9805 0.875-3.0312 1.125-1.043 0.25781-2.1367 0.39062-3.2812 0.39062-3.3984 0-6.0898-0.94531-8.0781-2.8438-1.9922-1.9062-2.9844-4.4844-2.9844-7.7344 0-3.2578 0.99219-5.8359 2.9844-7.7344 1.9883-1.9062 4.6797-2.8594 8.0781-2.8594 1.1445 0 2.2383 0.13281 3.2812 0.39062 1.0508 0.25 2.0625 0.625 3.0312 1.125v4.2188c-0.98047-0.65625-1.9453-1.1406-2.8906-1.4531-0.94922-0.3125-1.9492-0.46875-3-0.46875-1.875 0-3.3516 0.60547-4.4219 1.8125-1.0742 1.1992-1.6094 2.8555-1.6094 4.9688 0 2.1055 0.53516 3.7617 1.6094 4.9688 1.0703 1.1992 2.5469 1.7969 4.4219 1.7969 1.0508 0 2.0508-0.14844 3-0.45312 0.94531-0.3125 1.9102-0.80078 2.8906-1.4688z"/>
  </symbol>
  <symbol id="d" overflow="visible">
   <path d="m13.734-11.141c-0.4375-0.19531-0.87109-0.34375-1.2969-0.4375-0.41797-0.10156-0.83984-0.15625-1.2656-0.15625-1.2617 0-2.2305 0.40625-2.9062 1.2188-0.67969 0.80469-1.0156 1.9531-1.0156 3.4531v7.0625h-4.8906v-15.312h4.8906v2.5156c0.625-1 1.3438-1.7266 2.1562-2.1875 0.82031-0.46875 1.8008-0.70312 2.9375-0.70312 0.16406 0 0.34375 0.011719 0.53125 0.03125 0.19531 0.011719 0.47656 0.039062 0.84375 0.078125z"/>
  </symbol>
  <symbol id="a" overflow="visible">
   <path d="m17.641-7.7031v1.4062h-11.453c0.125 1.1484 0.53906 2.0078 1.25 2.5781 0.70703 0.57422 1.7031 0.85938 2.9844 0.85938 1.0312 0 2.082-0.14844 3.1562-0.45312 1.082-0.3125 2.1914-0.77344 3.3281-1.3906v3.7656c-1.1562 0.4375-2.3125 0.76562-3.4688 0.98438-1.1562 0.22656-2.3125 0.34375-3.4688 0.34375-2.7734 0-4.9297-0.70312-6.4688-2.1094-1.5312-1.4062-2.2969-3.3789-2.2969-5.9219 0-2.5 0.75391-4.4609 2.2656-5.8906 1.5078-1.4375 3.582-2.1562 6.2188-2.1562 2.4062 0 4.332 0.73047 5.7812 2.1875 1.4453 1.4492 2.1719 3.3828 2.1719 5.7969zm-5.0312-1.625c0-0.92578-0.27344-1.6719-0.8125-2.2344-0.54297-0.57031-1.25-0.85938-2.125-0.85938-0.94922 0-1.7188 0.26562-2.3125 0.79688s-0.96484 1.2969-1.1094 2.2969z"/>
  </symbol>
  <symbol id="c" overflow="visible">
   <path d="m9.2188-6.8906c-1.0234 0-1.793 0.17188-2.3125 0.51562-0.51172 0.34375-0.76562 0.85547-0.76562 1.5312 0 0.625 0.20703 1.1172 0.625 1.4688 0.41406 0.34375 0.98828 0.51562 1.7188 0.51562 0.92578 0 1.7031-0.32812 2.3281-0.98438 0.63281-0.66406 0.95312-1.4922 0.95312-2.4844v-0.5625zm7.4688-1.8438v8.7344h-4.9219v-2.2656c-0.65625 0.92969-1.3984 1.6055-2.2188 2.0312-0.82422 0.41406-1.8242 0.625-3 0.625-1.5859 0-2.8711-0.45703-3.8594-1.375-0.99219-0.92578-1.4844-2.1289-1.4844-3.6094 0-1.7891 0.61328-3.1016 1.8438-3.9375 1.2383-0.84375 3.1797-1.2656 5.8281-1.2656h2.8906v-0.39062c0-0.76953-0.30859-1.332-0.92188-1.6875-0.61719-0.36328-1.5703-0.54688-2.8594-0.54688-1.0547 0-2.0312 0.10547-2.9375 0.3125-0.89844 0.21094-1.7305 0.52344-2.5 0.9375v-3.7344c1.0391-0.25 2.0859-0.44141 3.1406-0.57812 1.0625-0.13281 2.125-0.20312 3.1875-0.20312 2.7578 0 4.75 0.54688 5.9688 1.6406 1.2266 1.0859 1.8438 2.8555 1.8438 5.3125z"/>
  </symbol>
  <symbol id="b" overflow="visible">
   <path d="m7.7031-19.656v4.3438h5.0469v3.5h-5.0469v6.5c0 0.71094 0.14062 1.1875 0.42188 1.4375s0.83594 0.375 1.6719 0.375h2.5156v3.5h-4.1875c-1.9375 0-3.3125-0.39844-4.125-1.2031-0.80469-0.8125-1.2031-2.1797-1.2031-4.1094v-6.5h-2.4219v-3.5h2.4219v-4.3438z"/>
  </symbol>
  <symbol id="m" overflow="visible">
   <path d="m12.766-13.078v-8.2031h4.9219v21.281h-4.9219v-2.2188c-0.66797 0.90625-1.4062 1.5703-2.2188 1.9844s-1.7578 0.625-2.8281 0.625c-1.8867 0-3.4336-0.75-4.6406-2.25-1.2109-1.5-1.8125-3.4258-1.8125-5.7812 0-2.3633 0.60156-4.2969 1.8125-5.7969 1.207-1.5 2.7539-2.25 4.6406-2.25 1.0625 0 2 0.21484 2.8125 0.64062 0.82031 0.42969 1.5664 1.0859 2.2344 1.9688zm-3.2188 9.9219c1.0391 0 1.8359-0.37891 2.3906-1.1406 0.55078-0.76953 0.82812-1.8828 0.82812-3.3438 0-1.457-0.27734-2.5664-0.82812-3.3281-0.55469-0.76953-1.3516-1.1562-2.3906-1.1562-1.043 0-1.8398 0.38672-2.3906 1.1562-0.55469 0.76172-0.82812 1.8711-0.82812 3.3281 0 1.4609 0.27344 2.5742 0.82812 3.3438 0.55078 0.76172 1.3477 1.1406 2.3906 1.1406z"/>
  </symbol>
  <symbol id="l" overflow="visible">
   <path d="m10.5-3.1562c1.0508 0 1.8516-0.37891 2.4062-1.1406 0.55078-0.76953 0.82812-1.8828 0.82812-3.3438 0-1.457-0.27734-2.5664-0.82812-3.3281-0.55469-0.76953-1.3555-1.1562-2.4062-1.1562-1.0547 0-1.8594 0.38672-2.4219 1.1562-0.55469 0.77344-0.82812 1.8828-0.82812 3.3281 0 1.4492 0.27344 2.5586 0.82812 3.3281 0.5625 0.77344 1.3672 1.1562 2.4219 1.1562zm-3.25-9.9219c0.67578-0.88281 1.4219-1.5391 2.2344-1.9688 0.82031-0.42578 1.7656-0.64062 2.8281-0.64062 1.8945 0 3.4453 0.75 4.6562 2.25 1.207 1.5 1.8125 3.4336 1.8125 5.7969 0 2.3555-0.60547 4.2812-1.8125 5.7812-1.2109 1.5-2.7617 2.25-4.6562 2.25-1.0625 0-2.0078-0.21094-2.8281-0.625-0.8125-0.42578-1.5586-1.0859-2.2344-1.9844v2.2188h-4.8906v-21.281h4.8906z"/>
  </symbol>
  <symbol id="f" overflow="visible">
   <path d="m0.34375-15.312h4.8906l4.125 10.391 3.5-10.391h4.8906l-6.4375 16.766c-0.64844 1.6953-1.4023 2.8828-2.2656 3.5625-0.86719 0.6875-2 1.0312-3.4062 1.0312h-2.8438v-3.2188h1.5312c0.83203 0 1.4375-0.13672 1.8125-0.40625 0.38281-0.26172 0.67969-0.73047 0.89062-1.4062l0.14062-0.42188z"/>
  </symbol>
  <symbol id="k" overflow="visible">
   <path d="m0.14062-20.406h18.812v3.9688h-6.7656v16.438h-5.2656v-16.438h-6.7812z"/>
  </symbol>
  <symbol id="j" overflow="visible">
   <path d="m2.3594-15.312h4.8906v15.312h-4.8906zm0-5.9688h4.8906v4h-4.8906z"/>
  </symbol>
  <symbol id="i" overflow="visible">
   <path d="m17.75-9.3281v9.3281h-4.9219v-7.1406c0-1.3203-0.03125-2.2344-0.09375-2.7344s-0.16797-0.86719-0.3125-1.1094c-0.1875-0.3125-0.44922-0.55469-0.78125-0.73438-0.32422-0.17578-0.69531-0.26562-1.1094-0.26562-1.0234 0-1.8242 0.39844-2.4062 1.1875-0.58594 0.78125-0.875 1.8711-0.875 3.2656v7.5312h-4.8906v-15.312h4.8906v2.2344c0.73828-0.88281 1.5195-1.5391 2.3438-1.9688 0.83203-0.42578 1.75-0.64062 2.75-0.64062 1.7695 0 3.1133 0.54688 4.0312 1.6406 0.91406 1.0859 1.375 2.6562 1.375 4.7188z"/>
  </symbol>
  <symbol id="v" overflow="visible">
   <path d="m14.312-14.828v3.7188c-1.043-0.4375-2.0547-0.76562-3.0312-0.98438-0.98047-0.21875-1.9023-0.32812-2.7656-0.32812-0.92969 0-1.6211 0.11719-2.0781 0.34375-0.44922 0.23047-0.67188 0.58984-0.67188 1.0781 0 0.38672 0.17188 0.68359 0.51562 0.89062 0.34375 0.21094 0.95703 0.36719 1.8438 0.46875l0.85938 0.125c2.5078 0.32422 4.1953 0.85156 5.0625 1.5781 0.86328 0.73047 1.2969 1.8711 1.2969 3.4219 0 1.6367-0.60547 2.8672-1.8125 3.6875-1.1992 0.8125-2.9922 1.2188-5.375 1.2188-1.0234 0-2.0742-0.078125-3.1562-0.23438-1.0742-0.15625-2.1797-0.39453-3.3125-0.71875v-3.7188c0.96875 0.48047 1.9609 0.83984 2.9844 1.0781 1.0312 0.23047 2.0781 0.34375 3.1406 0.34375 0.95703 0 1.6758-0.12891 2.1562-0.39062 0.47656-0.26953 0.71875-0.66406 0.71875-1.1875 0-0.4375-0.16797-0.75781-0.5-0.96875-0.33594-0.21875-0.99609-0.38281-1.9844-0.5l-0.85938-0.10938c-2.1797-0.26953-3.7031-0.77344-4.5781-1.5156-0.875-0.73828-1.3125-1.8594-1.3125-3.3594 0-1.625 0.55078-2.8281 1.6562-3.6094 1.1133-0.78906 2.8203-1.1875 5.125-1.1875 0.89453 0 1.8359 0.074219 2.8281 0.21875 1 0.13672 2.082 0.35156 3.25 0.64062z"/>
  </symbol>
  <symbol id="h" overflow="visible">
   <path d="m17.75-9.3281v9.3281h-4.9219v-7.1094c0-1.3438-0.03125-2.2656-0.09375-2.7656s-0.16797-0.86719-0.3125-1.1094c-0.1875-0.3125-0.44922-0.55469-0.78125-0.73438-0.32422-0.17578-0.69531-0.26562-1.1094-0.26562-1.0234 0-1.8242 0.39844-2.4062 1.1875-0.58594 0.78125-0.875 1.8711-0.875 3.2656v7.5312h-4.8906v-21.281h4.8906v8.2031c0.73828-0.88281 1.5195-1.5391 2.3438-1.9688 0.83203-0.42578 1.75-0.64062 2.75-0.64062 1.7695 0 3.1133 0.54688 4.0312 1.6406 0.91406 1.0859 1.375 2.6562 1.375 4.7188z"/>
  </symbol>
  <symbol id="u" overflow="visible">
   <path d="m2.5781-20.406h6.6875l4.6562 10.922 4.6719-10.922h6.6875v20.406h-4.9844v-14.938l-4.7031 11.016h-3.3281l-4.7031-11.016v14.938h-4.9844z"/>
  </symbol>
  <symbol id="g" overflow="visible">
   <path d="m2.1875-5.9688v-9.3438h4.9219v1.5312c0 0.83594-0.007813 1.875-0.015625 3.125-0.011719 1.25-0.015625 2.0859-0.015625 2.5 0 1.2422 0.03125 2.1328 0.09375 2.6719 0.070313 0.54297 0.17969 0.93359 0.32812 1.1719 0.20703 0.32422 0.47266 0.57422 0.79688 0.75 0.32031 0.16797 0.69141 0.25 1.1094 0.25 1.0195 0 1.8203-0.39062 2.4062-1.1719 0.58203-0.78125 0.875-1.8672 0.875-3.2656v-7.5625h4.8906v15.312h-4.8906v-2.2188c-0.74219 0.89844-1.5234 1.5586-2.3438 1.9844-0.82422 0.41406-1.7344 0.625-2.7344 0.625-1.7617 0-3.1055-0.53906-4.0312-1.625-0.92969-1.082-1.3906-2.6602-1.3906-4.7344z"/>
  </symbol>
  <symbol id="t" overflow="visible">
   <path d="m12.766-2.5938c-0.66797 0.88672-1.4062 1.543-2.2188 1.9688-0.8125 0.41797-1.7578 0.625-2.8281 0.625-1.8672 0-3.4062-0.73438-4.625-2.2031-1.2188-1.4766-1.8281-3.3516-1.8281-5.625 0-2.2891 0.60938-4.1641 1.8281-5.625 1.2188-1.4688 2.7578-2.2031 4.625-2.2031 1.0703 0 2.0156 0.21484 2.8281 0.64062 0.8125 0.41797 1.5508 1.0742 2.2188 1.9688v-2.2656h4.9219v13.766c0 2.457-0.77734 4.3359-2.3281 5.6406-1.5547 1.3008-3.8086 1.9531-6.7656 1.9531-0.94922 0-1.8711-0.074219-2.7656-0.21875-0.89844-0.14844-1.7969-0.37109-2.7031-0.67188v-3.8125c0.86328 0.48828 1.7031 0.85156 2.5156 1.0938 0.82031 0.23828 1.6484 0.35938 2.4844 0.35938 1.6016 0 2.7734-0.35156 3.5156-1.0469 0.75-0.69922 1.125-1.7969 1.125-3.2969zm-3.2188-9.5312c-1.0117 0-1.8047 0.375-2.375 1.125-0.5625 0.74219-0.84375 1.7969-0.84375 3.1719 0 1.3984 0.26953 2.4609 0.8125 3.1875 0.55078 0.71875 1.3516 1.0781 2.4062 1.0781 1.0195 0 1.8125-0.36719 2.375-1.1094 0.5625-0.75 0.84375-1.8008 0.84375-3.1562 0-1.375-0.28125-2.4297-0.84375-3.1719-0.5625-0.75-1.3555-1.125-2.375-1.125z"/>
  </symbol>
  <symbol id="s" overflow="visible">
   <path d="m12.422-21.281v3.2188h-2.7031c-0.6875 0-1.1719 0.125-1.4531 0.375-0.27344 0.25-0.40625 0.6875-0.40625 1.3125v1.0625h4.1875v3.5h-4.1875v11.812h-4.8906v-11.812h-2.4375v-3.5h2.4375v-1.0625c0-1.6641 0.46094-2.8984 1.3906-3.7031 0.92578-0.80078 2.3672-1.2031 4.3281-1.2031z"/>
  </symbol>
  <symbol id="e" overflow="visible">
   <path d="m9.6406-12.188c-1.0859 0-1.9141 0.39062-2.4844 1.1719-0.57422 0.78125-0.85938 1.9062-0.85938 3.375s0.28516 2.5938 0.85938 3.375c0.57031 0.77344 1.3984 1.1562 2.4844 1.1562 1.0625 0 1.875-0.38281 2.4375-1.1562 0.57031-0.78125 0.85938-1.9062 0.85938-3.375s-0.28906-2.5938-0.85938-3.375c-0.5625-0.78125-1.375-1.1719-2.4375-1.1719zm0-3.5c2.6328 0 4.6914 0.71484 6.1719 2.1406 1.4766 1.418 2.2188 3.3867 2.2188 5.9062 0 2.5117-0.74219 4.4805-2.2188 5.9062-1.4805 1.418-3.5391 2.125-6.1719 2.125-2.6484 0-4.7148-0.70703-6.2031-2.125-1.4922-1.4258-2.2344-3.3945-2.2344-5.9062 0-2.5195 0.74219-4.4883 2.2344-5.9062 1.4883-1.4258 3.5547-2.1406 6.2031-2.1406z"/>
  </symbol>
  <symbol id="r" overflow="visible">
   <path d="m16.547-12.766c0.61328-0.94531 1.3477-1.6719 2.2031-2.1719 0.85156-0.5 1.7891-0.75 2.8125-0.75 1.7578 0 3.0977 0.54688 4.0156 1.6406 0.92578 1.0859 1.3906 2.6562 1.3906 4.7188v9.3281h-4.9219v-7.9844-0.35938c0.007813-0.13281 0.015625-0.32031 0.015625-0.5625 0-1.082-0.16406-1.8633-0.48438-2.3438-0.3125-0.48828-0.82422-0.73438-1.5312-0.73438-0.92969 0-1.6484 0.38672-2.1562 1.1562-0.51172 0.76172-0.77344 1.8672-0.78125 3.3125v7.5156h-4.9219v-7.9844c0-1.6953-0.14844-2.7852-0.4375-3.2656-0.29297-0.48828-0.8125-0.73438-1.5625-0.73438-0.9375 0-1.6641 0.38672-2.1719 1.1562-0.51172 0.76172-0.76562 1.8594-0.76562 3.2969v7.5312h-4.9219v-15.312h4.9219v2.2344c0.60156-0.86328 1.2891-1.5156 2.0625-1.9531 0.78125-0.4375 1.6406-0.65625 2.5781-0.65625 1.0625 0 2 0.25781 2.8125 0.76562 0.8125 0.51172 1.4258 1.2305 1.8438 2.1562z"/>
  </symbol>
  <symbol id="q" overflow="visible">
   <path d="m2.5781-20.406h5.875l7.4219 14v-14h4.9844v20.406h-5.875l-7.4219-14v14h-4.9844z"/>
  </symbol>
  <symbol id="p" overflow="visible">
   <path d="m2.5781-20.406h8.7344c2.5938 0 4.582 0.57812 5.9688 1.7344 1.3945 1.1484 2.0938 2.7891 2.0938 4.9219 0 2.1367-0.69922 3.7812-2.0938 4.9375-1.3867 1.1562-3.375 1.7344-5.9688 1.7344h-3.4844v7.0781h-5.25zm5.25 3.8125v5.7031h2.9219c1.0195 0 1.8047-0.25 2.3594-0.75 0.5625-0.5 0.84375-1.2031 0.84375-2.1094 0-0.91406-0.28125-1.6172-0.84375-2.1094-0.55469-0.48828-1.3398-0.73438-2.3594-0.73438z"/>
  </symbol>
  <symbol id="o" overflow="visible">
   <path d="m2.3594-15.312h4.8906v15.031c0 2.0508-0.49609 3.6172-1.4844 4.7031-0.98047 1.082-2.4062 1.625-4.2812 1.625h-2.4219v-3.2188h0.85938c0.92578 0 1.5625-0.21094 1.9062-0.625 0.35156-0.41797 0.53125-1.2461 0.53125-2.4844zm0-5.9688h4.8906v4h-4.8906z"/>
  </symbol>
  <symbol id="n" overflow="visible">
   <path d="m14.719-14.828v3.9844c-0.65625-0.45703-1.3242-0.79688-2-1.0156-0.66797-0.21875-1.3594-0.32812-2.0781-0.32812-1.3672 0-2.4336 0.40234-3.2031 1.2031-0.76172 0.79297-1.1406 1.9062-1.1406 3.3438 0 1.4297 0.37891 2.543 1.1406 3.3438 0.76953 0.79297 1.8359 1.1875 3.2031 1.1875 0.75781 0 1.4844-0.10938 2.1719-0.32812 0.6875-0.22656 1.3203-0.56641 1.9062-1.0156v4c-0.76172 0.28125-1.5391 0.48828-2.3281 0.625-0.78125 0.14453-1.5742 0.21875-2.375 0.21875-2.7617 0-4.9219-0.70703-6.4844-2.125-1.5547-1.4141-2.3281-3.3828-2.3281-5.9062 0-2.5312 0.77344-4.5039 2.3281-5.9219 1.5625-1.4141 3.7227-2.125 6.4844-2.125 0.80078 0 1.5938 0.074219 2.375 0.21875 0.78125 0.13672 1.5547 0.35156 2.3281 0.64062z"/>
  </symbol>
 </defs>
 <g>
  <path d="m573.47 216.55c-0.52734-0.54297-1.1328-0.98047-1.7578-1.3555-19.02-44.957-49.688-84.156-89.066-113.52-0.42188-0.3125-0.86328-0.58203-1.3203-0.8125-20.949-18.137-47.453-28.055-75.305-28.055-19.965 0-39.523 5.207-56.895 15.109-17.367-9.9023-36.922-15.109-56.887-15.109-27.859 0-54.363 9.918-75.312 28.062-0.45313 0.22266-0.89063 0.49219-1.3086 0.80469-40.566 30.234-71.98 70.891-90.848 117.57-0.67188 1.6641-0.75781 3.4453-0.35156 5.1133v220.18c0 23.508 19.129 42.637 42.637 42.637 23.508 0 42.633-19.129 42.633-42.637v-19.02c5.8594 2.2578 13.016 2.25 18.867-0.003907v24c0 14.852 12.09 26.941 26.953 26.941 14.852 0 26.93-12.086 26.93-26.941l-0.003906-23.012c0-8.4453 6.4922-15.488 14.887-16.301 0.53125 0.0625 1.0586 0.10547 1.6133 0.10547 18.352 0 33.281-14.93 33.281-33.273v-2.1172c5.9258 0.42969 11.898 0.65625 17.914 0.65625 98.969 0 187.32-58.863 225.07-149.95 1.2734-3.0977 0.59766-6.6602-1.7344-9.0703zm-154.22 32.969c-31.762-10.383-60.168-30.816-80.164-57.859l-4.3047-7.8945c4.8281-0.13281 9.6211-0.21094 14.336-0.21094 67.336 0 132.61 12.93 194.36 38.375-40.414 13.602-81.953 22.777-124.22 27.59zm-38.457 3.2383c-2.9531 0.15234-5.9062 0.23438-8.8594 0.33984-5.7305 0.20312-11.469 0.33984-17.219 0.37891-2.7422 0.023438-5.4883 0.039063-8.2305 0.023438-6.4023-0.039062-12.785-0.19141-19.152-0.42578-2.0781-0.078125-4.1562-0.11328-6.2227-0.20703-8.2266-0.38672-16.438-0.93359-24.617-1.6562-2.4062-0.21094-4.8008-0.51563-7.207-0.75781-5.6914-0.57031-11.367-1.1914-17.031-1.9219-3.6289-0.46484-7.2461-0.99609-10.863-1.5273-4.4258-0.64844-8.832-1.3555-13.238-2.1016-3.9258-0.66797-7.8438-1.3438-11.762-2.0898-4.2656-0.81641-8.5195-1.7266-12.773-2.625-3.7852-0.80469-7.582-1.5586-11.352-2.4375h-0.011719c-0.011718-0.023438-0.023437-0.050781-0.039062-0.074219-3.1602-5.8398-5.2461-12.051-6.2109-18.445-0.011718-0.066407-0.023437-0.13281-0.035156-0.20312-0.003906-0.28516-0.035156-0.57812-0.074219-0.86328l-0.21875-1.5742c-0.29688-2.0938-0.57812-4.0781-0.57812-5.9023 0-4.3945 0.55859-8.668 1.5117-12.801 0.24219-1.0586 0.48047-2.1211 0.77734-3.1602 0.42969-1.4609 0.90625-2.9102 1.4453-4.3242 0.125-0.33594 0.28125-0.65625 0.41406-0.98438 0.49219-1.2227 1.0078-2.4375 1.5781-3.6172 0.13281-0.28125 0.28516-0.54688 0.42578-0.82422 0.62109-1.2266 1.2695-2.4375 1.9766-3.6133 0.125-0.20703 0.25391-0.41406 0.37891-0.61719 0.76562-1.25 1.5781-2.4688 2.4414-3.6562 0.089844-0.11719 0.17969-0.24219 0.26172-0.36328 0.95703-1.293 1.9609-2.5547 3.0195-3.7578 0.003906-0.003906 0.015625-0.015625 0.023437-0.027344 4.3789-4.9883 9.6133-9.207 15.496-12.434 0.26953-0.14453 0.54688-0.28516 0.82422-0.42969 1.1367-0.59766 2.2969-1.1602 3.4727-1.6875 0.41406-0.17969 0.82422-0.35938 1.2422-0.53125 1.0859-0.45312 2.1953-0.86328 3.3164-1.25 0.46484-0.15625 0.92969-0.32422 1.3984-0.46875 1.1758-0.37109 2.3672-0.6875 3.5781-0.98047 0.41016-0.10156 0.80469-0.21875 1.2148-0.30859 1.6289-0.35937 3.2773-0.66016 4.957-0.875 1.125-0.11719 6.7578-0.25391 13.355-0.25391 3.4375 0 6.4453 0.023438 7.3516 0.09375 15.406 1.7344 29.277 11.027 37.102 24.852 0.26172 0.46484 0.57031 0.89453 0.92578 1.293l11.031 20.242c0.17969 0.33203 0.37891 0.64844 0.60547 0.95312 15.578 21.219 35.828 38.812 58.789 51.379-1.0781 0.0625-2.1484 0.16406-3.2188 0.22266zm-191.82-34.367c-0.13281 1.2031-0.011718 2.4414 0.37891 3.6172l0.15625 0.46875c0.55469 3.4336 1.3984 6.8047 2.4453 10.129-12.168-3.2891-24.238-6.9844-36.223-11.039 10.719-4.3789 21.609-8.3984 32.625-12.051-0.003907 0.39062-0.054688 0.77734-0.054688 1.1719 0.003907 2.7852 0.33984 5.3789 0.67188 7.7031zm31.227-99.055c1.3555-0.35156 2.6367-1.0469 3.7109-2.0898 18.457-17.812 42.723-27.625 68.324-27.625 18.52 0 36.637 5.2578 52.398 15.211 2.7383 1.7305 6.2266 1.7305 8.9727 0 15.766-9.9531 33.891-15.211 52.41-15.211 25.598 0 49.863 9.8125 68.32 27.625 1.082 1.043 2.3672 1.7344 3.7227 2.0898 29.809 23.469 54.02 53.066 70.992 86.676-63.539-26.062-130.69-39.258-199.93-39.258-7.7617 0-15.715 0.17969-23.699 0.53125-0.60938-0.95312-1.3164-1.8203-1.9727-2.7383-0.60547-0.84375-1.1797-1.7148-1.8203-2.5273-0.91797-1.1719-1.9102-2.2617-2.9023-3.3672-0.68359-0.75781-1.332-1.5391-2.043-2.2617-1.0586-1.0742-2.1836-2.0625-3.3086-3.0586-0.72656-0.64844-1.4336-1.332-2.1914-1.9492-1.2031-0.98047-2.4766-1.8594-3.7422-2.7422-0.74609-0.51953-1.4688-1.0859-2.2422-1.5859-1.3828-0.88672-2.8242-1.6562-4.2656-2.4414-0.72266-0.39062-1.418-0.82812-2.1523-1.1914-1.625-0.80469-3.3047-1.4766-4.9961-2.1445-0.60547-0.24219-1.1875-0.53125-1.7969-0.75781-2.0625-0.73828-4.1719-1.3438-6.3008-1.875-0.27344-0.066406-0.53125-0.17188-0.8125-0.23438-2.4297-0.57031-4.8984-1.0078-7.3984-1.2891-0.48047-0.054688-1.7656-0.20703-9.2305-0.20703-2.082 0-12.617 0.015626-15.496 0.38672-2.1328 0.27344-4.2266 0.66797-6.3008 1.1133-0.55469 0.11719-1.0938 0.26953-1.6406 0.40234-1.5273 0.37109-3.0391 0.78516-4.5352 1.2422-0.58203 0.17969-1.1523 0.37109-1.7266 0.56641-1.5469 0.51953-3.0625 1.0977-4.5625 1.7188-0.40234 0.16797-0.8125 0.32422-1.2109 0.5-5.9531 2.5859-11.492 5.9453-16.508 9.9414-0.042969 0.035156-0.085937 0.074219-0.12891 0.10547-6.7656 5.4102-12.562 11.984-17.086 19.453-0.050781 0.085938-0.09375 0.16797-0.14453 0.25391-0.98047 1.6367-1.8945 3.3086-2.7539 5.0273-0.20312 0.39844-0.39062 0.80078-0.58984 1.2031-0.66797 1.3984-1.2812 2.8281-1.8633 4.2773-0.23438 0.58984-0.48047 1.1641-0.70703 1.7578-0.47656 1.293-0.90234 2.6133-1.3086 3.9414-0.22266 0.70703-0.46875 1.3984-0.67188 2.1172 0 0.003906-0.003907 0.015625-0.003907 0.027344-14.141 4.4414-28.129 9.4883-41.816 15.086 16.973-33.629 41.191-63.23 71.008-86.699zm95.215 253.77v3.9141c0 9.082-7.3906 16.477-16.18 16.477-0.42969-0.054688-0.85547-0.10547-1.293-0.12891-0.32031-0.011719-0.63672-0.015626-0.95703 0.003906-17.578 1.0312-31.348 15.578-31.348 33.125v23.023c0 5.5898-4.5469 10.141-10.129 10.141-5.6016 0-10.152-4.5547-10.152-10.141v-48.484c0-4.6367-3.7578-8.3984-8.3984-8.3984s-8.3984 3.7617-8.3984 8.3984c0 5.207-4.2344 9.4414-9.4414 9.4414-5.1953 0-9.4258-4.2344-9.4258-9.4414 0-4.6367-3.7578-8.3984-8.3984-8.3984s-8.3984 3.7617-8.3984 8.3984v43.508c0 14.246-11.586 25.84-25.832 25.84s-25.84-11.594-25.84-25.84l-0.007812-186.86c35.141 58.625 93.184 99.398 159.92 112.93 0.39063 0.085937 0.78516 0.16797 1.1758 0.24609 4.2188 0.82812 8.4688 1.5664 12.746 2.1836 0.125 0.015625 0.24219 0.042969 0.35937 0.058594zm34.715-14.348c-9.5312 0-18.93-0.67578-28.207-1.8203-2.8125-0.34766-5.6016-0.77344-8.3906-1.2227-2.2617-0.36328-4.5234-0.74609-6.7656-1.1719-2.9062-0.56641-5.7891-1.1914-8.6562-1.8633-2.0273-0.47656-4.0547-0.95703-6.0664-1.4883-3.0625-0.80469-6.1094-1.6875-9.1289-2.6133-1.7188-0.53125-3.4375-1.0625-5.1406-1.6367-3.2578-1.0938-6.4844-2.2578-9.6836-3.4961-1.3906-0.53125-2.7734-1.0742-4.1484-1.6367-3.4375-1.4102-6.8359-2.8945-10.191-4.4648-1.0703-0.50391-2.1406-1.0078-3.2031-1.5234-3.5664-1.7422-7.0898-3.5625-10.555-5.4805-0.8125-0.44922-1.6172-0.90234-2.418-1.3555-3.625-2.0664-7.1953-4.2227-10.695-6.4805-0.61719-0.39844-1.2305-0.80469-1.8477-1.2109-3.5938-2.375-7.125-4.832-10.574-7.4023-0.51562-0.37891-1.0234-0.77344-1.5273-1.1523-3.4648-2.625-6.8555-5.3438-10.164-8.1641-0.5-0.42578-0.99219-0.85547-1.4883-1.2891-3.2383-2.8125-6.4062-5.7109-9.4805-8.7031-0.56641-0.54688-1.1211-1.1094-1.6758-1.668-2.9297-2.9062-5.7852-5.8867-8.5508-8.9531-0.69922-0.78516-1.3828-1.5742-2.0703-2.3633-2.5469-2.9023-5.0352-5.8633-7.4375-8.8984-0.86719-1.0977-1.7031-2.2227-2.5547-3.3359-2.1328-2.8047-4.2227-5.6445-6.2266-8.5586-1.0352-1.5-2.0156-3.0391-3.0195-4.5703-1.7188-2.625-3.4141-5.2734-5.0273-7.9805-1.1602-1.9492-2.25-3.9492-3.3555-5.9375-0.94531-1.707-1.875-3.4258-2.7891-5.1641 18.246 6.2148 36.73 11.469 55.391 15.949 0.09375 0.027344 0.16797 0.10156 0.26172 0.11719 3.4258 0.81641 6.875 1.5469 10.316 2.3125 5.2812 1.1719 10.574 2.2695 15.883 3.3047 4.1094 0.80078 8.2266 1.5898 12.355 2.3086 3.5625 0.61719 7.1289 1.1875 10.707 1.7422 4.1211 0.64453 8.2539 1.2305 12.387 1.7852 3.1602 0.42578 6.3164 0.88672 9.4883 1.2617 6.8945 0.82422 13.797 1.5273 20.719 2.1211 2.3984 0.20703 4.8008 0.35156 7.2031 0.53125 5.5312 0.41016 11.066 0.75 16.605 1.0195 2.2695 0.10547 4.543 0.21875 6.8086 0.30078 7.6328 0.28125 15.27 0.46875 22.91 0.46875 7.5195 0 15.082-0.19141 22.645-0.46484 2.1836-0.078125 4.3555-0.17188 6.5352-0.27344 6.1836-0.29297 12.371-0.66797 18.555-1.1367 1.9414-0.14453 3.8789-0.28125 5.8242-0.44922 5.2695-0.45312 10.539-0.94531 15.785-1.5352 0.15625-0.015625 0.29297-0.10547 0.44922-0.12891 44.727-5 88.691-14.719 131.4-29.289-38.746 74.52-115.71 121.66-201.19 121.66z"/>
  <use x="70" y="644" xlink:href="#w"/>
  <use x="90.550781" y="644" xlink:href="#d"/>
  <use x="104.359375" y="644" xlink:href="#a"/>
  <use x="123.347656" y="644" xlink:href="#c"/>
  <use x="142.242188" y="644" xlink:href="#b"/>
  <use x="155.628906" y="644" xlink:href="#a"/>
  <use x="174.617188" y="644" xlink:href="#m"/>
  <use x="204.410156" y="644" xlink:href="#l"/>
  <use x="224.453125" y="644" xlink:href="#f"/>
  <use x="252.453125" y="644" xlink:href="#k"/>
  <use x="271.550781" y="644" xlink:href="#j"/>
  <use x="281.148438" y="644" xlink:href="#i"/>
  <use x="301.082031" y="644" xlink:href="#c"/>
  <use x="319.976562" y="644" xlink:href="#v"/>
  <use x="336.640625" y="644" xlink:href="#h"/>
  <use x="356.578125" y="644" xlink:href="#a"/>
  <use x="385.3125" y="644" xlink:href="#u"/>
  <use x="413.179688" y="644" xlink:href="#g"/>
  <use x="433.109375" y="644" xlink:href="#t"/>
  <use x="453.15625" y="644" xlink:href="#c"/>
  <use x="472.046875" y="644" xlink:href="#f"/>
  <use x="490.300781" y="644" xlink:href="#j"/>
  <use x="70" y="672" xlink:href="#s"/>
  <use x="82.183594" y="672" xlink:href="#d"/>
  <use x="95.992188" y="672" xlink:href="#e"/>
  <use x="115.226562" y="672" xlink:href="#r"/>
  <use x="154.152344" y="672" xlink:href="#b"/>
  <use x="167.535156" y="672" xlink:href="#h"/>
  <use x="187.46875" y="672" xlink:href="#a"/>
  <use x="216.207031" y="672" xlink:href="#q"/>
  <use x="239.640625" y="672" xlink:href="#e"/>
  <use x="258.878906" y="672" xlink:href="#g"/>
  <use x="278.8125" y="672" xlink:href="#i"/>
  <use x="308.492188" y="672" xlink:href="#p"/>
  <use x="329.015625" y="672" xlink:href="#d"/>
  <use x="342.820312" y="672" xlink:href="#e"/>
  <use x="362.058594" y="672" xlink:href="#o"/>
  <use x="371.65625" y="672" xlink:href="#a"/>
  <use x="390.648438" y="672" xlink:href="#n"/>
  <use x="407.242188" y="672" xlink:href="#b"/>
 </g>
</svg>
