<svg xmlns="http://www.w3.org/2000/svg" viewBox="0 0 449.17 469.54"><title>Gay</title><g id="Layer_2" data-name="Layer 2"><g id="Layer_1-2" data-name="Layer 1"><g id="Layer_1-2-2" data-name="Layer 1-2"><path d="M319.09.55c28,4.93,44.68,42.79,37.32,84.55s-36,71.62-64,66.69S247.73,109,255.09,67.24s36-71.62,64-66.69"/><path d="M426.71,141.55c20.85,7.58,28.56,39,17.24,70.08s-37.4,50.19-58.25,42.6-28.56-39-17.23-70.08,37.4-50.19,58.24-42.6"/><path d="M80.69,184.16c11.31,31.11,3.62,62.49-17.23,70.08S16.55,242.75,5.22,211.63s-3.61-62.49,17.23-70.08S69.37,153,80.69,184.16"/><path d="M197.92,67.27c7.37,41.76-9.34,79.61-37.31,84.55s-56.62-24.93-64-66.69S106,5.55,133.94.55s56.62,24.93,64,66.69"/><path d="M225.54,432c27.68,0,54.12,26.77,84.57,33.87,34.68,8.09,79,4,102.08-24.91,19.64-24.5,20.76-66.52-5.52-90.29-20.41-18.47-44.64-19.57-66.21-50.45-15.91-22.75-17-52.14-31.65-75.51-17.49-28-52.38-35-83.26-35-30.37,0-63.37,8.36-81.39,34.69C128.8,246.86,126,275.2,111.35,298c-16.1,25-45.63,33.43-66.93,52.7C18.13,374.47,19.25,416.49,38.89,441,62,469.85,106.3,474,141,465.9c30.45-7.1,56.9-33.87,84.57-33.87Z"/></g></g></g></svg>