<svg xmlns="http://www.w3.org/2000/svg" viewBox="0 0 479.23 490.96"><title>Polyamory</title><g id="Layer_2" data-name="Layer 2"><g id="Layer_1-2" data-name="Layer 1"><path d="M181.64,0a17.19,17.19,0,0,0-4.67.8,17.9,17.9,0,0,0-3.81,1.79L8.38,103A17.53,17.53,0,0,0,0,118.32L4.53,311.25a17.52,17.52,0,0,0,9.13,14.94l137.35,75,6.47-36.32L39.32,300.37,35.24,127.62,182.72,37.73l151.64,82.83.9,38.47L363,216l8.65,1.32-2.56-107.68a17.48,17.48,0,0,0-9.05-15L190.64,2.15a17.49,17.49,0,0,0-9-2.14ZM337.26,242.34v.83l2.22,4.59h0l8.8,1.33a17.42,17.42,0,0,1-11.05-6.76Zm.95,40.6.24,10.36L229.64,359.54l-8.17,46,123.77-75.47c13.88-9.8,28.14-20.78,28.44-27.75l-.34-14.08ZM189.94,382.63l-6.49,36.3h0Z"/><path d="M293.17,121.13a17.53,17.53,0,0,0-23.32,7.9L218.6,231l-113.32,15.7a17.47,17.47,0,0,0-9.89,29.76l81.39,80.17L156.73,469a17.47,17.47,0,0,0,12.66,20A17.59,17.59,0,0,0,182,487.64L283.6,435.16,384.51,488.9a17.55,17.55,0,0,0,22.91-5.85,17.42,17.42,0,0,0,2.63-12.39l-18.6-112.6,82.41-79.17A17.47,17.47,0,0,0,464.33,249L351.26,231.88l-50-102.67a17.54,17.54,0,0,0-8.14-8.09Zm-7.91,55.2,38.49,79.11a17.53,17.53,0,0,0,13.12,9.62L424,278.25l-63.49,61a17.48,17.48,0,0,0-5.13,15.45l14.35,86.72L292,400a17.58,17.58,0,0,0-16.34-.09l-78.2,40.4,15.42-86.55A17.48,17.48,0,0,0,208,338.26l-62.71-61.75,87.27-12.1a17.5,17.5,0,0,0,13.27-9.49Z"/></g></g></svg>