<svg xmlns="http://www.w3.org/2000/svg" viewBox="0 0 504.01 482.69"><defs><style>.cls-1{fill-rule:evenodd;}</style>
</defs>
<g id="Layer_2" data-name="Layer 2"><g id="Layer_1-2" data-name="Layer 1"><path class="cls-1" d="M299,171.48a108.38,108.38,0,0,0-76.1,33.6l-.13.16a108.72,108.72,0,0,0,3.65,153.61l.15.13a108.72,108.72,0,0,0,153.61-3.65l.13-.15a108.73,108.73,0,0,0-3.64-153.61l-.16-.13a108.45,108.45,0,0,0-77.51-30Zm.66,28.79h0a79.77,79.77,0,0,1,56.94,22l.17.13h0a79.95,79.95,0,0,1,2.73,112.88l-.13.16h0a80,80,0,1,1-59.68-135.18Zm-67.76,13.44h0a96.32,96.32,0,0,1,136.12-3.15l.16.13a96.33,96.33,0,0,1,3,136l-.13.16h0A96.29,96.29,0,0,1,231.92,213.72Zm208.78,186a19.62,19.62,0,0,0-13.87,33.46l49.4,49.5L504,454.9l-49.43-49.42a19.6,19.6,0,0,0-13.86-5.75Zm-45.19-37,26.09,26.08a36,36,0,0,0-11.41,11.41l-26.1-26.09q4-3.51,7.76-7.44l.13-.14c1.2-1.26,2.37-2.53,3.5-3.83Zm68.71-273V40a40.08,40.08,0,0,0-40-40H40A40.1,40.1,0,0,0,0,40V89.72ZM426,41.17h0a6.46,6.46,0,0,1,0,12.92H290.64a6.46,6.46,0,1,1,0-12.92ZM290.65,24.8H426a22.83,22.83,0,1,1,0,45.65H290.65a22.83,22.83,0,1,1,0-45.65ZM57.56,41.16a6.46,6.46,0,0,1,0,12.92H56.8a6.46,6.46,0,1,1,0-12.92ZM56.8,24.8h.76a22.83,22.83,0,0,1,0,45.65H56.8a22.83,22.83,0,1,1,0-45.65Zm65.13,16.36a6.46,6.46,0,0,1,0,12.92h-.75a6.46,6.46,0,0,1,0-12.92Zm-.76-16.36h.76a22.83,22.83,0,1,1,0,45.65h-.75a22.83,22.83,0,1,1,0-45.65Zm65.14,16.36a6.46,6.46,0,1,1,0,12.92h-.75a6.46,6.46,0,0,1,0-12.92Zm-.75-16.36h.75a22.83,22.83,0,1,1,0,45.65h-.75a22.83,22.83,0,1,1,0-45.65Zm-8.65,265.62c-.2-2.46-.33-4.91-.39-7.37a125.28,125.28,0,0,1,7.53-45.78H95.77a26.58,26.58,0,0,0,0,53.15Zm-69.48-16.05a8.19,8.19,0,0,1,0-16.37h.1a8.19,8.19,0,0,1,0,16.37Zm25,0a8.19,8.19,0,1,1,0-16.37h.09a8.19,8.19,0,0,1,0,16.37Zm25,0a8.19,8.19,0,1,1,0-16.37h.08a8.19,8.19,0,0,1,0,16.37Zm53.83-80.69-.13.16a125.19,125.19,0,0,0-19.69,27.08H95.77a42.94,42.94,0,1,0,0,85.88h83.57a124.51,124.51,0,0,0,35.71,63.73l.15.12a125.15,125.15,0,0,0,155.86,13.57L404.79,418c0,.46,0,.92,0,1.38a35.89,35.89,0,0,0,10.51,25.45l18.35,18.35a39.43,39.43,0,0,1-9.31,1.09H40a40.1,40.1,0,0,1-40-40V106.08H464.25V392.13a35.88,35.88,0,0,0-23.52-8.71h-1.38l-33.76-33.74a125.18,125.18,0,0,0-17.5-159.8l-.16-.12h0a125.1,125.1,0,0,0-176.69,3.92Z"/></g></g></svg>