<svg xmlns="http://www.w3.org/2000/svg" viewBox="0 0 535.25 535.25"><g id="Layer_2" data-name="Layer 2"><g id="Layer_1-2" data-name="Layer 1"><path d="M267.63,535.25A267.95,267.95,0,1,0,78.48,456.77a267.63,267.63,0,0,0,189.15,78.48Zm0-483a215.63,215.63,0,1,1-152.18,63.18A215.36,215.36,0,0,1,267.63,52.25ZM292,398.78a27.72,27.72,0,1,0,0,.06ZM178,183.18a27.39,27.39,0,0,1,1.17-21,93.67,93.67,0,0,1,84-53.36h.56a95.19,95.19,0,0,1,94.75,91.61,93.78,93.78,0,0,1-63.89,91.84s-2.74,1-2.74,2.58V316.8h0a27.52,27.52,0,1,1-55,0V294.85a58.19,58.19,0,0,1,40.09-54.71,39.18,39.18,0,0,0,26.6-38.36,40.15,40.15,0,0,0-39.53-38,39.2,39.2,0,0,0-35,22.4,27.49,27.49,0,0,1-51-3Z"/></g></g></svg>