<svg xmlns="http://www.w3.org/2000/svg" viewBox="0 0 504 371.28"><g id="Layer_2" data-name="Layer 2"><g id="Layer_1-2" data-name="Layer 1"><path d="M360.08,230.72c0-34.16-70.56-39.2-70.56-123.2C289.52,45.92,333.76,0,395.36,0,460.88.56,504,59.36,504,121.52,504,229,403.2,371.28,340.48,371.28c-15.68,0-44.24-11.2-44.24-30.24C296.8,322,360.08,289,360.08,230.72Z"/><path d="M70.56,230.72C70.56,197.12,0,191.52,0,108.08,0,46.48,44.24.56,105.84.56c66.08,0,109.2,58.8,109.2,121C215,229,114.24,371.28,51.52,371.28c-15.68,0-44.24-11.2-44.24-30.24S70.56,289,70.56,230.72Z"/></g></g></svg>