<svg xmlns="http://www.w3.org/2000/svg" viewBox="0 0 504 371.28"><g id="Layer_2" data-name="Layer 2"><g id="Layer_1-2" data-name="Layer 1"><path d="M143.92,140.56c0,34.16,70.56,39.2,70.56,123.2,0,61.6-44.24,107.52-105.84,107.52C43.12,370.72,0,311.92,0,249.76,0,142.24,100.8,0,163.52,0c15.68,0,44.24,11.2,44.24,30.24s-63.84,52.08-63.84,110.32Z"/><path d="M433.44,140.56c0,34.16,70.56,39.2,70.56,123.2,0,61.6-44.24,107.52-105.84,107.52-66.08,0-109.2-58.8-109.2-121C289,142.8,389.76.56,452.48.56c15.68,0,44.24,11.2,44.24,30.24s-63.28,51.52-63.28,109.77Z"/></g></g></svg>