<svg xmlns="http://www.w3.org/2000/svg" viewBox="0 0 434.13 245"><title>LGBT (Other)</title><g id="Layer_2" data-name="Layer 2"><g id="Layer_1-2" data-name="Layer 1"><g id="Layer_1-2-2" data-name="Layer 1-2"><g id="Layer_1-2-2-2" data-name="Layer 1-2-2"><path d="M216.73,105c-39.84,0-77.26,21.55-100.62,57.93-15.42,23.83-23.69,52.58-23.6,82.07h52.16a14.6,14.6,0,0,0,3.26-1.57l1.86-1.23h0a16.33,16.33,0,0,0,2.67-3l1.24-1.58h0a18.59,18.59,0,0,0,2.17-6c6.83-37.89,39.61-62.36,73.23-54.67h0c24.45,5.59,43.55,27.12,48.51,54.67a17.57,17.57,0,0,0,5,9.45,15.43,15.43,0,0,0,3.55,2.28h1.09a14.15,14.15,0,0,0,5.28,1H341c0-77.32-55.62-140-124.23-140Z"/><path d="M216.73,0C103.14,0,8.72,98.63,0,226.27c-.61,9.65,5.83,18,14.4,18.73h47C61.36,208.15,71.7,172.23,91,142.45c50.28-78.29,147.37-95.81,216.83-39.13h0C348.12,136.22,372,188.9,372,245H418.6a14.05,14.05,0,0,0,6.21-1.4h.93a15.45,15.45,0,0,0,4-3.33l3-5.6a20.7,20.7,0,0,0,0-3.15,17.9,17.9,0,0,0,1.4-4C425.62,99.28,330.84.1,216.73,0Z"/></g></g></g></g></svg>