<svg xmlns="http://www.w3.org/2000/svg" viewBox="0 0 223.58 205.77"><g id="Layer_2" data-name="Layer 2"><g id="_1_-_Contents" data-name="1 - Contents"><path d="M208.67,66.08,222.15,52.5a4.83,4.83,0,0,0-3.45-8.28H194.36V88H218.7a4.87,4.87,0,0,0,3.45-8.32Z"/><path d="M.36,47.19A4.9,4.9,0,0,0,1.43,52.5L14.91,66.08,1.43,79.66A4.87,4.87,0,0,0,4.89,88H29.22V44.22H4.89a4.91,4.91,0,0,0-4.53,3Z"/><path d="M181.11,22.86,113.07.25a4.88,4.88,0,0,0-3.07,0L42,22.86a4.82,4.82,0,0,0-3.36,4.62V132.79a72.93,72.93,0,1,0,145.86,0V27.48a4.82,4.82,0,0,0-3.36-4.62ZM160.7,96.78l-25.62,18.38,9.77,29.65a4.88,4.88,0,0,1-1.7,5.45,4.83,4.83,0,0,1-5.74.05l-25.67-18.43L86.11,150.31a4.86,4.86,0,0,1-7.43-5.5l9.77-29.65L62.83,96.78A4.85,4.85,0,0,1,65.69,88H97.35l9.82-29.76a4.85,4.85,0,0,1,9.19,0L126.18,88h31.65a4.85,4.85,0,0,1,2.87,8.8Z"/></g></g></svg>