<svg xmlns="http://www.w3.org/2000/svg" viewBox="0 0 289.43 335.61"><defs><style>.cls-101{fill:#333;}</style></defs><g id="Layer_2" data-name="Layer 2"><g id="_3-Contents" data-name="3-Contents"><path class="cls-101" d="M250.47,40.71C208.75,0,151.26,0,145.69,0H45.09V66.88H146.16c.92,0,35.23.46,57,21.7,13,12.46,19,30.47,19,54.93,0,73.86-63.52,82.63-77.89,83.56H131.78V201.23c0-12.49-8.81-17.58-19.47-11.1L8,250.27c-10.67,6-10.67,16.19,0,22.66l104.31,60.14c10.66,6,19.47.93,19.47-11.1V295.6h15.3c49.15-2.31,142.34-37,142.34-151.27.45-43.48-12.53-78.17-39-103.62Z"/></g></g></svg>