<svg xmlns="http://www.w3.org/2000/svg" viewBox="0 0 643.35 494.02"><title>Lesbians</title><g id="Layer_2" data-name="Layer 2"><g id="_3-Contents" data-name="3-Contents"><path d="M643.35,68.37c-31.49-40.22-90.53-48.57-132.26-19L294.61,204.21,227.69,156.4c-7.08-5.32-11-14.42-8.66-22.77a107.42,107.42,0,0,0,.79-50.09c-9.45-41.74-45.66-75.13-89.75-82C60.79-9.8.18,41.8.18,107.07c0,59.19,49.6,107,111,107a113.69,113.69,0,0,0,57.47-15.17,23.28,23.28,0,0,1,25.19,1.52l64.56,46.29L193.84,293a23.3,23.3,0,0,1-25.19,1.52c-22-12.9-48.81-18.21-77.15-13.66C44.27,289.21,7.27,326.4,1,372.69-8.47,442.51,52.14,501,124.57,493.35c48.81-5.31,89-42.49,96.83-89.54a103,103,0,0,0-2.36-44c-2.36-8.35,1.57-17.45,8.66-22.77l66.91-47.81L511.1,444c41.72,30.35,100.77,22,132.25-19L393.8,246.71ZM111.18,151.85c-25.19,0-46.44-19.73-46.44-44.77,0-24.29,20.46-44.78,46.44-44.78,25.19,0,46.45,19.73,46.45,44.78C157.63,131.36,137.16,151.85,111.18,151.85Zm0,279.27c-25.19,0-46.44-19.73-46.44-44.77,0-24.29,20.46-44.77,46.44-44.77,25.19,0,46.45,19.73,46.45,44.77C157.63,410.64,137.16,431.12,111.18,431.12ZM334,268c-11.81,0-22.05-9.87-22.05-21.25s10.24-21.25,22.05-21.25,22,9.87,22,21.25S346.56,268,334,268Z"/></g></g></svg>