<svg xmlns="http://www.w3.org/2000/svg" viewBox="0 0 504.02 503.98"><g id="Layer_2" data-name="Layer 2"><g id="Layer_1-2" data-name="Layer 1"><path d="M188.6,412.48c-.29-14.69,6.41-31,19.39-44,14.21-14.17,32.39-20.76,48-19.09,26.24,4,56.91-8,89.84-56.9C413.12,192.56,529.59,35.57,499,5S311.47,90.89,211.58,158.18c-47.84,32.2-60.39,62.25-57.18,88.1l-.05,0c2.38,16-4.26,34.9-19,49.62-13,13-29.35,19.7-44,19.39l.17.17a94.33,94.33,0,1,0,97,97ZM58.46,445.57a50.79,50.79,0,1,1,71.83,0,50.77,50.77,0,0,1-71.83,0Z"/></g></g></svg>