<svg xmlns="http://www.w3.org/2000/svg" viewBox="0 0 473.4 532"><g id="Layer_2" data-name="Layer 2"><g id="Layer_1-2" data-name="Layer 1"><path d="M421.39,329.82A109.17,109.17,0,0,0,285.82,346.9l-73.49-45.19a109,109,0,0,0,0-71.4l73.52-45.2a109.19,109.19,0,1,0-24.73-40.23l-73.52,45.21a109.51,109.51,0,1,0,0,151.8l73.57,45.23a109.15,109.15,0,1,0,160.31-57.3ZM331.77,56.41a62,62,0,1,1-20.34,85.22,62,62,0,0,1,20.34-85.22ZM141.64,318.77A61.95,61.95,0,1,1,162,233.55a62,62,0,0,1-20.32,85.22ZM417,455.26a62,62,0,1,1-20.34-85.21A62,62,0,0,1,417,455.26Z"/></g></g></svg>