<svg xmlns="http://www.w3.org/2000/svg" viewBox="0 0 494.5 400.05"><defs><style>.cls-100{fill:#333;fill-rule:evenodd;}</style></defs><g id="Layer_2" data-name="Layer 2"><g id="_3-Contents" data-name="3-Contents"><path class="cls-100" d="M48.82,60.51q-4.89,0-10,.22H11.24A11.24,11.24,0,0,0,0,72v61.21H0a12.74,12.74,0,0,0,3.59,8,9.52,9.52,0,0,0,8,2.85l55.34,1h1.17s4.21-.19,14.1,3.21c9.71,3.34,23.94,10.17,41.13,24.29a10.85,10.85,0,0,0,9.24,3.61h1a11.26,11.26,0,0,0,8.63-5.35l38.42-44.74h0a11.25,11.25,0,0,0,4-9.47c0-.11,0-.21,0-.32v-.05a11.28,11.28,0,0,0-5.39-8.62C151.5,84,115.54,60.19,48.82,60.51Z"/><path class="cls-100" d="M370.84,212.13a11.17,11.17,0,0,0-11.57,11.16v37.55c-14.17.5-42.18-3.13-73.79-33.07a11.23,11.23,0,0,0-9.23-4.46h-.82a11.25,11.25,0,0,0-8.7,5.31c-11.54,13.16-26.08,30.19-37.92,44.21v.9a11.3,11.3,0,0,0,1.37,18.16c26.51,23,62.48,46.41,104.48,50.69.21,0,.42,0,.64.05l24,1.07v45.2h0a11.16,11.16,0,0,0,6.17,10,11.29,11.29,0,0,0,11.73-1l56-41.09h.4l56.32-41.61,1.16-1.15a11.07,11.07,0,0,0-1.15-17l-56.32-41.61h-.83l-55.71-41.14h0a11.13,11.13,0,0,0-6.23-2.18Z"/><path class="cls-100" d="M371,0a11.26,11.26,0,0,0-11.68,11.22V56.64l-24,1.08h0l-.65.05c-89.52,9.18-153,103.82-153,103.82l-.09.14c-32.89,48.87-62.68,72.39-83.62,83.81a98.6,98.6,0,0,1-24.21,9.71c-5.44,1.28-7.27,1.18-7.28,1.18h.51l-55.54-.55h0A11.28,11.28,0,0,0,.65,263.36a11.42,11.42,0,0,0-.65,4v61.12a11.26,11.26,0,0,0,11.26,11.26H37.78c81.41,3.16,119.32-28.1,150.05-55h0c32.53-28.4,39.49-52.07,91.21-106,34.2-35.65,65.15-39.75,80.22-39.2v37.68h0a11.28,11.28,0,0,0,18,9l56.27-41.46,56.22-41.4v-.12a11.21,11.21,0,0,0,0-18.07L433.52,43.67h0L377.23,2.21A11.25,11.25,0,0,0,370.94,0Z"/></g></g></svg>