<svg xmlns="http://www.w3.org/2000/svg" viewBox="0 0 504.33 495.46"><g id="Layer_2" data-name="Layer 2"><g id="_3-Contents" data-name="3-Contents"><path d="M448.7,181.54a738,738,0,0,0-119.12-1.77A184,184,0,0,1,347.38,145a191.12,191.12,0,0,0,10.05-17.6c18.76-38.67,15-67.88,8.56-85.57a64.63,64.63,0,0,0-32.5-37.66A41.15,41.15,0,0,0,301.06,2.6c-12.68,5-22.95,16.62-30.51,34.55-2.14,5.06-4,10.16-6,15.55-7.78,21.1-15.82,42.92-39.54,60.82h0a226.57,226.57,0,0,1-21.94,14,283.08,283.08,0,0,0-49.32,34.84,103.43,103.43,0,0,0-18.31,23.47A19.64,19.64,0,0,0,116,168.69H19.86A19.6,19.6,0,0,0,0,188.37V471a19.68,19.68,0,0,0,19.7,19.68H116a19.65,19.65,0,0,0,19.5-17.64,427.93,427.93,0,0,1,56.4,4.85c56.73,12.35,96.31,17.56,129.51,17.56a320.75,320.75,0,0,0,86.44-12.41c67.11-17.74,94-167.08,96.46-236.62a63.28,63.28,0,0,0-55.6-64.89ZM399.28,455.3c-56.45,14.95-97,17.49-202.28-5.43h0a445.6,445.6,0,0,0-62-5.5V232.24a105.54,105.54,0,0,0,20.38-26.85A102.83,102.83,0,0,1,171.63,183a255.44,255.44,0,0,1,44.77-31.55,251.15,251.15,0,0,0,24.52-15.77c30.2-22.81,40.53-50.84,48.82-73.35,1.83-5,3.59-9.77,5.52-14.33,4.39-10.42,9.69-17.29,14.93-19.35h0a13,13,0,0,1,10.69,1.07,37.35,37.35,0,0,1,17.56,21.65c4.59,12.6,7,33.88-7.42,63.69a166.12,166.12,0,0,1-8.64,15.06,210.37,210.37,0,0,0-21.26,42.61c-1.45,4-5.56,17.76,1.95,27.79a19,19,0,0,0,16.7,7.51,736.94,736.94,0,0,1,124.2,1,35.09,35.09,0,0,1,30.74,36c-2.87,80.21-32.95,199-75.43,210.22Z"/></g></g></svg>