<svg xmlns="http://www.w3.org/2000/svg" viewBox="0 0 504.35 495.49"><g id="Layer_2" data-name="Layer 2"><g id="_3-Contents" data-name="3-Contents"><path d="M484.64,4.77H388.36a19.61,19.61,0,0,0-19.49,17.64,431.37,431.37,0,0,1-56.41-4.85c-110.51-24-155.93-21-216-5.15C29.38,30.14,2.53,179.49,0,249a63.3,63.3,0,0,0,55.61,64.89,736.87,736.87,0,0,0,119.12,1.77A184,184,0,0,1,157,350.47a191.12,191.12,0,0,0-10.05,17.6c-18.76,38.67-15,67.88-8.56,85.58h0a64.57,64.57,0,0,0,32.5,37.66,45.54,45.54,0,0,0,18.54,4.19,37.9,37.9,0,0,0,13.89-2.62c12.68-5,22.95-16.62,30.52-34.55,2.13-5.07,4-10.16,6-15.55,7.78-21.11,15.83-42.92,39.54-60.82a228.5,228.5,0,0,1,21.94-14,282.33,282.33,0,0,0,49.32-34.84,103.19,103.19,0,0,0,18.32-23.47,19.64,19.64,0,0,0,19.45,17.16h96.28a19.7,19.7,0,0,0,19.7-19.68V24.45a19.68,19.68,0,0,0-19.7-19.68ZM347.92,290.25a103.2,103.2,0,0,1-16.28,22.43,255.92,255.92,0,0,1-44.86,31.61,252.83,252.83,0,0,0-24.57,15.8C231.94,383,221.6,411,213.29,433.6c-1.83,5-3.6,9.78-5.53,14.35-4.4,10.44-9.71,17.33-15,19.39h0a13,13,0,0,1-10.71-1.08,37.33,37.33,0,0,1-17.6-21.69c-4.6-12.62-7-33.94,7.44-63.81h0a170.82,170.82,0,0,1,8.66-15.1A210.42,210.42,0,0,0,201.9,323c1.45-4,5.57-17.8-2-27.85a19,19,0,0,0-16.73-7.52,736.88,736.88,0,0,1-124.46-1A35.14,35.14,0,0,1,28,250.47c2.88-80.36,33-199.38,75.58-210.64,56.57-15,97.24-17.52,202.69,5.44a444.28,444.28,0,0,0,62.12,5.51V263.34a106.25,106.25,0,0,0-20.43,26.91Z"/></g></g></svg>