<svg xmlns="http://www.w3.org/2000/svg" viewBox="0 0 466.66 466.66"><g id="Layer_2" data-name="Layer 2"><g id="_1_-_Contents" data-name="1 - Contents"><path d="M233.33,0C104.62,0,0,104.62,0,233.33S104.62,466.66,233.33,466.66,466.66,361.94,466.66,233.33,361.94,0,233.33,0ZM372.21,371.46a2.05,2.05,0,0,0-.28.46l-.56.29a195.47,195.47,0,0,1-276.17,0,1.83,1.83,0,0,1-.46-.29c-.19-.18-.19-.37-.38-.55a195.78,195.78,0,0,1-41.72-214A197.57,197.57,0,0,1,94.36,95.19c.19-.09.19-.28.38-.46s.37-.19.46-.38a195.59,195.59,0,0,1,276.17.1c.19.09.38.09.56.28s.19.37.28.46a195.58,195.58,0,0,1,0,276.26Z"/><path d="M387.42,224h22.77a176.89,176.89,0,0,0-45.26-109.13L348.87,131a9.34,9.34,0,0,1-6.53,2.7,9.58,9.58,0,0,1-6.63-2.7,9.42,9.42,0,0,1,0-13.26l16.06-16a176.05,176.05,0,0,0-109.2-45.26V79.15a9.23,9.23,0,0,1-9.25,9.33,10,10,0,0,1-9.75-9.33V56.47a175.45,175.45,0,0,0-108.69,45.26l16,16a9.24,9.24,0,0,1,0,13.26,9.34,9.34,0,0,1-6.53,2.7,9.58,9.58,0,0,1-6.63-2.7l-16.05-16.06A176.21,176.21,0,0,0,56.46,224H79.14a9.33,9.33,0,0,1,9.33,9.31A9.91,9.91,0,0,1,79.14,243H56.46a176.32,176.32,0,0,0,45.17,108.76l16.05-16.06a9.29,9.29,0,0,1,13.16,0,9.12,9.12,0,0,1,0,13.16l-16,16.06A176.5,176.5,0,0,0,223.57,410.2V387.52a9.89,9.89,0,0,1,9.75-9.33,9.17,9.17,0,0,1,9.25,9.33V410.2a176.61,176.61,0,0,0,109.1-45.26l-16-16a9.42,9.42,0,0,1,0-13.26,9.29,9.29,0,0,1,13.16,0l16.05,16.06A177,177,0,0,0,410.19,243H387.41a9.91,9.91,0,0,1-9.33-9.69,9.33,9.33,0,0,1,9.33-9.31Zm-80.27,19h-74a9.56,9.56,0,0,1-8.36-4.94l-50.83-91.4a9.5,9.5,0,1,1,16.62-9.21L238.74,224H307a9.5,9.5,0,1,1,.13,19Z"/></g></g></svg>