<svg xmlns="http://www.w3.org/2000/svg" viewBox="0 0 467.04 537"><title>Transgender</title><g id="Layer_2" data-name="Layer 2"><g id="Layer_1-2" data-name="Layer 1"><g id="Layer_1-2-2" data-name="Layer 1-2"><g id="Layer_1-2-2-2" data-name="Layer 1-2-2"><path d="M455.28,1.68A17.14,17.14,0,0,0,448,0H328.16V39.2H400.4L322,117.6a149.67,149.67,0,0,0-85.68-26.88,147,147,0,0,0-88.48,29.12L130.48,103,159.6,73.92l-28-28L103,75,67.2,39.2h42V0H19.6a15.57,15.57,0,0,0-7.28,1.68C5,5,0,11.76,0,19.6v89.6H39.2v-42L75,103,45.92,132.16l28,28L103,131l16.8,16.8c-20.16,25.76-32.48,57.68-32.48,93,0,75.6,56.56,138.32,129.36,147.84v57.68H153.44v39.2h63.84V537h39.2V485.52h63.84v-39.2h-64.4V388.08c72.8-9.52,129.36-72.24,129.36-147.84a147.72,147.72,0,0,0-34.71-95.76L427.85,67.2v72.24H467V19.6c.56-7.84-4.48-14.56-11.76-17.92ZM236.32,350A109.76,109.76,0,1,1,346.08,240.24h0C346.64,300.72,297.36,350,236.32,350Z"/></g></g></g></g></svg>