<svg xmlns="http://www.w3.org/2000/svg" viewBox="0 0 558.91 558.9"><defs><style>.cls-1{fill-rule:evenodd;}</style></defs><title>world2</title><g id="Layer_2" data-name="Layer 2"><g id="_1_-_Contents" data-name="1 - Contents"><path class="cls-1" d="M380.91,105.55c4.66,3.31-10.59,18.31-6.83,15,18.9-16.38,37.84-11.9,46.06-10.76-11.83-6.86-16.66-12.19-22.82-12-4,.13-6.39,4.76-16.41,7.73ZM269,181.63c2.69-1,3.66-3.9,8.94-3.38,3.31,2.72,6.18,2.85,9.27,4.27,8.82,3.8,8.71,13.06,12.93,10.95,5.35-2.66,13.95,2.48,18.85,3.8,26.86,7.26,28.55.81,45.82,15.84-3,25.27-20.41,22.84-29,3.71-5.54-12.38-28.95-3.87-37.43-2.11-10.25,1-15.06-16.37-19.85-19.07-11.05-6.25-15.05,2.29-30.56-6.68,10.43-11.81.72-3.09,21-7.33ZM134.38,455.11c.37-3.47.65-6.38-1.6-7.6-15.21-8.21-3.18-16.57-2-21.78,13.41-13.73-1.67-10.34,1.37-35.12,3.79-31-1.23-33.29-20.22-44.16-5.4-3.09-13.28,11.81-22.92-7.91-14.41-7.8-7.43-14.3-9.91-18.68-7.6-13.39-13.31.2-23.56-13-1.39-2.26-2.6-7.45-3.55-14.2-.25-4.37-.38-8.76-.38-13.2a227.41,227.41,0,0,1,13.36-77,37.76,37.76,0,0,1,9.21-8.71c3.16-2.07,8.42-2.62,14.82-5.49,4.81-2.16,5.06-12,11.16-13,4.65-.81,15.26-1.29,20.64-1.41,15.32-6.14-1.89-28.89,19.82-28.81,9.16,0,12.46-9.46,22-3.56,4.18,2.57,6-10.92-4.37-23.58-2.86-3.48,4.27-8.81,4.26-14.27,0-4-4-10.73-6.13-15.89A228.36,228.36,0,0,1,357.73,65.45c11.3,5.46,22.19,11.06,34.6,22.35-5.15,3.55-6.8,5.92-10.68,8.11-16.28,9.22-21.19,4.07-26,2.26-24-9-9.26-19.34-16.19-21.18-9.54-2.54-23.1,7.4-34.67,10.22-4.27,1-13.87-6.49-17.55-5.34-16.67,5.19-21.07,20.1-18.84,27.52,4.06,13.45-4,18.55-12.05,39.8-26.22-18.63-7.26-8.06-22.13-31.73-30.34,14.93-27.13,24.43-29.16,35.21,5.82.49,10.06-4.28,14.14.84,8.67,10.87,19.27.06,3.46,16.25-9,9.2-21.65-9.2-20.2,10.51,1.57,21.41-8.67,18.26,6.43,22.14,11.54,3,6.14,12.71-10.27,14.32-6.16.61-5.21,12.75-13.47,17.59-7.62,4.46-6.51,12.61-8.49,21.16-8.14,10.57-1.25,15.6-3.45,21.6-3.66,9.95,5.43,15.32-2.37,23.42-4.31,4.48,5.63,15.89,14.93,18.25a235.19,235.19,0,0,0,24.59,5.37c23.36,3.7,28-7.05,39.94-2,4.63,2,11.5,13.91,15.22,25.69C270.59,364,279.21,364.3,282,370c7,14.18,7.75,21.89,3.46,37.87-1.87,7,6.33,13.82,6.41,27,.09,15.28,11.6,29.05,20.7,32.42,5.72,2.12-1.71-11.47,19.69-13.31a34.73,34.73,0,0,0,28-18c4.32-7.58,9.53-12.33,10.84-24.7,8.15,7.13,4.27,20,23.48,17.48,2.1-9.65,11.74-4.44,14.27-8.7,3.23-5.44,2.9-12.81,4.85-19.29,6.95-23-6.28-3.12-25.43-15.8-2.38-10.59-.57-23.72,6.12-26.28,15.14-5.78,9.33-15.25,26.56-27.72,4.92-3.56,15.39-12.92,8.75-19-4.59-4.22,6-6.84,1-14.24-6.65-6.56-19-1.49-25.85-3.11-6.11-1.45-14-2.62-15.31-9-2.25-11.11-14-11.84-10.15-46.49,4-4.21,1.07,14.18,11,26.84,4.71,6,10.69,5.87,17.11,21.51,9.18-3.45,15.32-1.06,23.13-4.63,22.22-10.13,12.73-22.08,23-37.9,12.33,8.52,19.06.5,25,11.53a36.12,36.12,0,0,1,4.58,21.71c-1,11.19-.69,13.25,7.68,19.08,3.64,2.53-4.52,11.62,5.93,14.57,7.88-9.5,5.61-13.44,4.14-18.43-2.9-9.95,1.62-12.08,1.28-18-.14-2.49,2.41-4.18,4.76-7.17.18,3.71.28,7.45.28,11.2a227.78,227.78,0,0,1-10.54,68.67c-.35.16-.71.32-1.07.45-2.57.86-2,5.86-4.67,7.69-2.85,2-5.49-1.69-12,4.86-5.22,6.52-5.57,11.57-5.67,16.59-.25,13.15,3.9,20.83-9.29,28.32-12.4,14.18-22.52,4.56-23,15.25-.44,9.16-7.67,11-7.49,26v0a227.81,227.81,0,0,1-299.1,7.81ZM296.65,128.5c12.16-4.22,18.65-3.16,17.16-12.94-2.2-.54-23.09-14.69-19.22-8.68,10.3,16-15.79,22.24-17.31,23.45-2.95,2.34,20.48-6.86,19.37-1.84Zm-17.2,395.8C144.22,524.3,34.6,414.68,34.6,279.45S144.22,34.6,279.45,34.6,524.3,144.22,524.3,279.45,414.68,524.3,279.45,524.3Zm0,34.6C125.12,558.9,0,433.78,0,279.45S125.12,0,279.45,0,558.91,125.12,558.91,279.45,433.79,558.9,279.45,558.9Z"/></g></g></svg>