<svg xmlns="http://www.w3.org/2000/svg" viewBox="0 0 560 560"><g id="Layer_2" data-name="Layer 2"><g id="_1_-_Contents" data-name="1 - Contents"><path d="M399.09,26.69l-.26-.26-4.55-2.11h-.09A278.4,278.4,0,0,0,280,0a228.93,228.93,0,0,0-27.56,1.49,18.69,18.69,0,0,0-2.45.17,269.61,269.61,0,0,0-67.9,16.11A12.31,12.31,0,0,0,179,18.82,281,281,0,0,0,65.1,100.71l-3.5.09V105A280.49,280.49,0,0,0,0,280a274.75,274.75,0,0,0,7.79,65.19,12.2,12.2,0,0,0,.7,2.8C31.94,442.05,104,518.44,196.88,547.31a12.08,12.08,0,0,0,2.54.87l.79.27A282.13,282.13,0,0,0,280,560c154.35,0,280-125.65,280-280,0-108-63.17-207.29-160.91-253.31Zm-119.23,504a252.32,252.32,0,0,1-65.8-8.75c-.35-.08-.79-.26-1.14-.35,3.24-48.12-42.7-74.81-57.92-82.34a21.58,21.58,0,0,1-8.14-7.26c-16.45-23.19-36.57-33-50.49-37.1a28.76,28.76,0,0,1-20.65-25.73L75.37,363c-2.54-20.13-9.71-32.46-21.08-36.67-7-2.53-14.09-1.48-20.22.7a233.32,233.32,0,0,1-3.76-28.43c-.08-1.14-.08-2.11-.17-3.24,14.7-10.59,20.38-31.5,20.65-32.64a8.18,8.18,0,0,0,.08-3.59c-.44-2.62,2.27-8.22,11.55-15.31a39.28,39.28,0,0,0,14.44-23.54l8.57-45.93a12.88,12.88,0,0,0,.18-1.84l-1.49-47.43c1.58-2,3.06-4,4.73-6a254.4,254.4,0,0,1,79.8-62.56c-8.05,15.67-20.3,34-29.31,45.85a8.16,8.16,0,0,0,.79,10.77,8.07,8.07,0,0,0,5.86,2.45,8.39,8.39,0,0,0,4.9-1.58C183.35,90.36,251,83.8,251.6,83.8a8.82,8.82,0,0,0,6.56-4.29,8.47,8.47,0,0,0,.09-7.79l-15.84-30.1,8-9.54c2.27-.26,4.55-.61,6.83-.79,7.26-.7,14.69-1.05,22.75-1.05a246.68,246.68,0,0,1,99.48,20.65c1.05.44,2,1,3.07,1.4a150.56,150.56,0,0,0,12.6,48.48l-25.64,9.88a12.61,12.61,0,0,1-9.1-.26c-10.59-4.29-19.16-5.33-25.55-2.8a8.22,8.22,0,0,0-5.17,9c0,.35,4.64,30.28-6.38,56.79-7.35-15.75-21.09-37.36-42.88-42.79a8.26,8.26,0,0,0-6.56,1.05,8.43,8.43,0,0,0-3.68,5.43l-6.73,36.57a23.13,23.13,0,0,1-4,9.37l-23.8,32a41.28,41.28,0,0,0-7.52,31.68l3.5,20.56a8.12,8.12,0,0,0,2.89,5l13.82,11.46.35,11.29A35.75,35.75,0,0,0,269,326.52c9,4.19,21.17,11.63,28.08,23.53,4.9,8.4,13.65,14.18,24.68,16.19s17.76,9.1,20.39,22c.43,1.67,10.32,40.61,25.55,65.11a26.07,26.07,0,0,0,19.42,12.42c1.05.09,2.11.18,3.15.18a26.91,26.91,0,0,0,19.08-8c20.12-20.39,31.5-37.45,33.68-50.75l14.79-38.33a49.36,49.36,0,0,0,3.33-15.49c.61-12.16,3.24-53.63,13-75.42a6.83,6.83,0,0,1,4.63-3.85,6.39,6.39,0,0,1,5.34,1.13c10.32,8.14,22.23,22.05,20,42.44a8.27,8.27,0,0,0,13.3,7.44l9.62-7.52C509.11,439.4,404,530.67,279.86,530.67Z"/></g></g></svg>