<svg xmlns="http://www.w3.org/2000/svg" viewBox="0 0 461.44 532"><title>bin</title><g id="Layer_2" data-name="Layer 2"><g id="Layer_1-2" data-name="Layer 1"><path d="M437.92,75H325.36V23.52A23.66,23.66,0,0,0,301.84,0H159.6a23.66,23.66,0,0,0-23.52,23.52V75H23.52a23.52,23.52,0,0,0,0,47h414.4a23.66,23.66,0,0,0,23.52-23.52A23.3,23.3,0,0,0,437.92,75ZM183.12,47.6h94.64v28H183.12Z"/><path d="M56.56,463.68A68.59,68.59,0,0,0,124.88,532H336.56a68.59,68.59,0,0,0,68.32-68.32V152.32H56.56ZM300.72,238a15.68,15.68,0,0,1,31.36,0V446.32a15.68,15.68,0,0,1-31.36,0ZM215,238a15.68,15.68,0,0,1,31.36,0V446.32a15.68,15.68,0,0,1-31.36,0Zm-85.68,0a15.68,15.68,0,0,1,31.36,0V446.32a15.68,15.68,0,0,1-31.36,0Z"/></g></g></svg>