<svg xmlns="http://www.w3.org/2000/svg" viewBox="0 0 313.6 313.6"><defs><style>.cls-1{fill-rule:evenodd;}</style></defs><title>new</title><g id="Layer_2" data-name="Layer 2"><g id="Layer_1-2" data-name="Layer 1"><path class="cls-1" d="M156.8,313.6A156.8,156.8,0,1,1,313.6,156.8,156.8,156.8,0,0,1,156.8,313.6ZM140,145.6H72.8a11.2,11.2,0,1,0,0,22.4H140a5.6,5.6,0,0,1,5.6,5.6v67.2a11.2,11.2,0,1,0,22.4,0V173.6a5.6,5.6,0,0,1,5.6-5.6h67.2a11.2,11.2,0,0,0,0-22.4H173.6A5.6,5.6,0,0,1,168,140V72.8a11.2,11.2,0,1,0-22.4,0V140A5.6,5.6,0,0,1,140,145.6Z"/></g></g></svg>