<svg xmlns="http://www.w3.org/2000/svg" viewBox="0 0 509.09 509.1"><title>save</title><g id="Layer_2" data-name="Layer 2"><g id="Layer_1-2" data-name="Layer 1"><path d="M318.18,0H350A28.91,28.91,0,0,1,371.3,8.53l1,1L499.54,136.83a28.91,28.91,0,0,1,9.55,20.86V445.46A63.65,63.65,0,0,1,447,509.08l-1.57,0H63.64A63.64,63.64,0,0,1,0,447l0-1.57V63.65A63.65,63.65,0,0,1,62.07,0l1.57,0H95.45V95.47a31.81,31.81,0,0,0,30.65,31.79l1.17,0H286.36a31.82,31.82,0,0,0,31.8-30.64V0Zm63.63,286.36H127.27A31.81,31.81,0,0,0,95.48,317l0,1.17v63.63a31.83,31.83,0,0,0,30.65,31.8l1.16,0H381.81A31.83,31.83,0,0,0,413.61,383l0-1.17V318.19A31.81,31.81,0,0,0,383,286.39ZM286.36,0V95.46H222.72V0Z"/></g></g></svg>