<svg xmlns="http://www.w3.org/2000/svg" viewBox="0 0 531.89 467.04"><title>Action/Adventure</title><g id="Layer_2" data-name="Layer 2"><g id="Layer_1-2" data-name="Layer 1"><path d="M235.76,285.6,150.08,420a30.21,30.21,0,0,0,9.52,42,29.18,29.18,0,0,0,16.24,5,30.51,30.51,0,0,0,25.76-14l84-131.6-23-10.64a64.86,64.86,0,0,1-26.88-25.2Z"/><path d="M495,53.76A53.76,53.76,0,1,1,441.28,0,53.76,53.76,0,0,1,495,53.76"/><path d="M530.88,205A26.14,26.14,0,0,0,499.52,187L462,197.68l-18.48-41.44A71.26,71.26,0,0,0,417.76,126L374.08,97.44a71.15,71.15,0,0,0-43.68-11.2l-64.4,5a26.34,26.34,0,0,0-17.36,9L205,151.76c-9,10.64-7.84,26.88,2.8,35.84s26.88,7.84,35.84-2.8l37-43.68,38.64-2.8L263.76,238c-3.92,7.28-5,16.24-2.24,24.08a32.85,32.85,0,0,0,16.24,18.48l85.68,40.32-47.6,65c-10.08,13.44-6.72,32.48,6.72,42.56,5.6,3.92,11.76,6.16,17.92,6.16a31.3,31.3,0,0,0,24.64-12.32L434.56,327a30.55,30.55,0,0,0-11.76-45.92l-59.92-28.56,41.44-61L425,238c3.92,9.52,13.44,15.12,23.52,15.12a28.11,28.11,0,0,0,6.72-1.12l58.8-16.24C527,232.4,534.8,218.4,530.88,205Z"/><path d="M58.8,131H162.4a22.4,22.4,0,1,0,0-44.8H58.8a22.4,22.4,0,0,0,0,44.8Z"/><path d="M40.32,231.28h103.6a22.4,22.4,0,1,0,0-44.8H40.32a22.47,22.47,0,0,0-22.4,22.4c.56,12.32,10.08,22.4,22.4,22.4Z"/><path d="M125.44,286.72H22.4a22.4,22.4,0,1,0,0,44.79H126a22.46,22.46,0,0,0,22.4-22.39c0-12.32-10.64-22.4-23-22.4Z"/></g></g></svg>