<svg xmlns="http://www.w3.org/2000/svg" viewBox="0 0 448 448"><defs><style>.cls-1{fill-rule:evenodd;}</style></defs><title>Comedy</title><g id="Layer_2" data-name="Layer 2"><g id="Layer_1-2" data-name="Layer 1"><path class="cls-1" d="M224,448C100.29,448,0,347.71,0,224S100.29,0,224,0,448,100.29,448,224,347.71,448,224,448Zm82.86-291.23L363,128.69A18.66,18.66,0,0,0,346.32,95.3L253,142c-14.4,7.2-13.54,28.05,1.42,34l93.33,37.33a18.67,18.67,0,0,0,13.87-34.67ZM86.41,178.66a18.67,18.67,0,0,0,13.87,34.67L193.61,176c14.95-6,15.82-26.83,1.41-34L101.69,95.3A18.66,18.66,0,1,0,85,128.69l56.15,28.08Zm-2.3,82.67A28,28,0,0,0,61.64,306q64,86,162.36,86t163-85.82a28,28,0,0,0-22.36-44.85Z"/><path class="cls-1" d="M324.27,341.59C298.38,361.23,263,373.34,224,373.34s-74.37-12.11-100.27-31.75a219.43,219.43,0,0,1,200.54,0Z"/></g></g></svg>