<svg xmlns="http://www.w3.org/2000/svg" viewBox="0 0 532 442.96"><title>Documentary / ArtHouse</title><g id="Layer_2" data-name="Layer 2"><g id="Layer_1-2" data-name="Layer 1"><path d="M335.44,174.16h-303A32.5,32.5,0,0,0,0,206.64V410.48A32.5,32.5,0,0,0,32.48,443h303a32.5,32.5,0,0,0,32.48-32.48V206.64c.56-17.92-14-32.48-32.48-32.48Z"/><path d="M497.28,194.32l-89,51V371.84l89,51.53A23.1,23.1,0,0,0,532,403.21V214.49a23.11,23.11,0,0,0-34.72-20.17Z"/><path d="M168.56,69.44A69.44,69.44,0,1,1,99.12,0a69.44,69.44,0,0,1,69.44,69.44"/><path d="M338.24,69.44A69.44,69.44,0,1,1,268.8,0a69.44,69.44,0,0,1,69.44,69.44"/></g></g></svg>