<svg xmlns="http://www.w3.org/2000/svg" viewBox="0 0 511.92 434.25"><title>drama</title><g id="Layer_2" data-name="Layer 2"><g id="Layer_1-2" data-name="Layer 1"><path d="M502.63,167c-5.63-4.37-13.56-5.47-20.45-5.3-8.64.22-16.84,2.29-25.05,4.7a59.91,59.91,0,0,1-6.89,1.48c.17,0,.38-.06.6-.06.66-.05-2.51.39-.6.06a8.78,8.78,0,0,1-1.15.11c-1.31.11-2.62.16-3.93.22-2.57.05-5.09,0-7.66-.17-1.2-.11-2.46-.16-3.66-.33-.66,0-1.37-.16-2-.22h-.16l.6.11a7.14,7.14,0,0,1-1.09-.16,2.19,2.19,0,0,1,.43.05,143.3,143.3,0,0,1-16.68-3.66q-8.69-2.46-17.06-5.74c-1.42-.55-2.84-1.1-4.26-1.7l-1.43-.6c-.38-.16-.71-.33-.87-.38-2.79-1.26-5.58-2.57-8.31-3.88a211.43,211.43,0,0,1-30.41-18.21c-1-.77-2-1.48-3-2.25-.33-.22-.65-.49-1-.71v.06a.06.06,0,0,1-.06-.06c-.16-.16-.6-.49-.76-.65a0,0,0,0,1,.05.05.06.06,0,0,1,.06.06l.05,0,.06.05c-.06,0-.06-.05-.11-.05-1.92-1.59-3.83-3.23-5.64-4.87a84.38,84.38,0,0,1-9-9.62c0-.06,0-.06,0-.11a.21.21,0,0,1-.06-.11.22.22,0,0,1-.05-.11c-.06-.06-.11-.16-.17-.22l-.05,0v-.06c-.11-.16-.22-.27-.33-.44.05.11.16.17.22.28-1.48-2.08-3-4.16-4.59-6.13a55.08,55.08,0,0,0-8.15-7.71,28,28,0,0,0-15.43-5.9,24.28,24.28,0,0,0-16.62,6.07c-1.15-5-2.41-10-3.72-14.93-3.72-14.11-7.93-28.06-12.74-41.79-2.74-7.87-5.63-15.75-8.81-23.51-.65-1.59-1.31-3.17-2-4.7-.17-.33-.28-.66-.44-1a4.65,4.65,0,0,1-.28-.55A25.13,25.13,0,0,0,239.91.16c-7.71-.93-15.75,2.46-22.09,6.45C209.89,11.64,203.33,18.2,197,25a74,74,0,0,1-5.63,5.25,4.07,4.07,0,0,1,.55-.38s0-.06,0-.06-2.07,1.64-.6.44a11.42,11.42,0,0,1-1,.76c-1.15.82-2.35,1.64-3.55,2.41-2.35,1.48-4.81,2.84-7.28,4.1-1.2.6-2.4,1.2-3.6,1.75-.66.33-1.32.6-2,.93,0,.06-.11.06-.16.11a2.82,2.82,0,0,1,.6-.22c-.11.06-1,.44-1.09.49a1.34,1.34,0,0,0,.43-.21A168.53,168.53,0,0,1,156,46.31c-6.34,1.7-12.74,3.06-19.2,4.16-1.64.27-3.28.54-4.92.76-.33.06-1.69.22-1.69.22-.44.06-.82.11-1,.11-3.33.38-6.61.71-10,1a228.94,228.94,0,0,1-38.66-.06c-1.37-.11-2.73-.27-4.1-.44L75,51.89h.16c-.27-.06-1-.11-1.15-.16h.55a.31.31,0,0,1-.22-.06c-2.68-.38-5.36-.87-8-1.42a92.9,92.9,0,0,1-13.83-3.94c-.06,0-.11-.05-.17-.05s-.05,0-.11-.06a.19.19,0,0,1-.11-.05c-.11-.06-.16-.06-.27-.11h-.11c-.11-.06-.16-.11-.27-.11h.05c-2.57-1.15-5.14-2.24-7.76-3.17a54.83,54.83,0,0,0-12-2.63A30,30,0,0,0,14,43.3C6.67,47.13,1.86,55.06.6,63.05a60.57,60.57,0,0,0-.6,9.4Q.17,85.74.82,99c.77,15.8,2.08,31.55,4.05,47.25,3.22,26.8,8.31,53.37,16.73,79,6.51,19.85,14.88,39.32,25.87,57.15a193.36,193.36,0,0,0,31.39,39.1,157.28,157.28,0,0,0,33.63,24.39,148,148,0,0,0,59.28,17.5,106.78,106.78,0,0,0,15.7.27c1.15-.05,2.3-.16,3.44-.27,7.5-.82,14.77-4.7,21.55-7.87a149.3,149.3,0,0,0,13.67-7.28A146.14,146.14,0,0,0,239.8,379a140.41,140.41,0,0,0,19.25,25.26,137.16,137.16,0,0,0,19.15,16.41,103.13,103.13,0,0,0,12.19,7.6,29.67,29.67,0,0,0,2.84,1.37c6.29,2.84,13.84,3.28,20.68,3.93,19.57,2,39.81-.16,58.29-7.05a144.93,144.93,0,0,0,48-30c13.73-12.74,25.38-27.84,35.28-43.69a337.59,337.59,0,0,0,25.37-50.48,461.22,461.22,0,0,0,16.41-47.2c3.72-12.79,6.94-25.81,9.68-38.82,1.58-7.5,3-15,4.15-22.65.22-1.53.44-3.06.66-4.64a5.56,5.56,0,0,0,.11-1c0-.16.05-.38.05-.55A23.52,23.52,0,0,0,502.63,167ZM321.23,192.6c7.66,2.08,15,5.36,20.24,11.65a36,36,0,0,1,7.76,19.25,34.56,34.56,0,0,1-.38,12.08c-.77,3.07-3.83,4.82-6.4,6.4a28.29,28.29,0,0,1-10.23,3.94c-13.34,2.3-25.48-4.87-35-13.67a264.24,264.24,0,0,0,2.41-31.5c.05-2.79.05-5.52.05-8.31a41.15,41.15,0,0,1,21.55.16ZM167.34,136.27a40.31,40.31,0,0,1,8.1-20.45c6-7.6,14.65-11.43,23.84-13.45,16.41-3.56,33.41,1.25,44,14.71,1.48,1.91,2.41,4.54.87,6.83-1.8,2.68-3.82,5.25-5.85,7.77-7.71,9.51-17,18.65-28.05,24.17-6.18,3.06-13.13,5.2-20.13,4.7-7.87-.6-14.65-3.93-20.56-9a4.93,4.93,0,0,1-1.59-1.59,4.58,4.58,0,0,1-.82-3.55,49,49,0,0,1,.22-10.12ZM56,166c-.16-.11-.38-.16-.54-.27s-.06-.06-.11-.06a4.8,4.8,0,0,1-2.57-5.46,3.76,3.76,0,0,1,.11-.82c2.89-16.63,15.47-29.21,31.5-33.75,8.36-2.35,17.11-3.39,25.43-.43a39.16,39.16,0,0,1,18,13.67c2.57,3.39,5.2,7.44,6.4,11.54,1,3.28-.87,6.67-2.41,9.57a32.3,32.3,0,0,1-7.38,9.4c-12,10.34-28.87,9.68-43.42,6.07A112.67,112.67,0,0,1,56,166ZM218.64,287.64a80.68,80.68,0,0,1-34.51,17.94,78,78,0,0,1-37.73-.6c-18.37-5-34.51-16.46-47.58-30.08a131.08,131.08,0,0,1-17.94-22.64,5.72,5.72,0,0,1,.88-6.84c1.91-1.91,4.48-1.91,6.78-.87,18.32,7.93,38.12,12.8,58.13,12.85,26,.06,50.43-8,71.86-22.37,2-1.36,4-2.73,5.91-4.21.44-.32.93-.71,1.37-1l.05-.05a7,7,0,0,1,.77-.6l1.8-1.48c.17-.16.33-.27.49-.44,2.79-2.29,5.53-4.75,8.15-7.27a67.54,67.54,0,0,0,6.62-7.11c3-3.72,10.06-.71,9.57,4a97.6,97.6,0,0,1-1.7,10.45,123,123,0,0,1-17.06,42,88,88,0,0,1-15.86,18.37Zm192.55,56.17a96.85,96.85,0,0,1-6.23,7.43,113.24,113.24,0,0,1-33.14,25C354,384.82,334,387,315.05,381.05a71,71,0,0,1-29.42-18.27c-12-12.52-19.31-29-23.19-45.72l.55-.71a150.4,150.4,0,0,0,12.85-18.86,130,130,0,0,0,32.38,28.05c20.39,12.25,43.42,17.45,67,16.19,2.19-.11,4.43-.44,6.62-.66.49-.05,1-.27,1.53-.27,0,0,0,.11.06.11s.71,0,.87-.06l2.68-.32c3.28-.5,6.56-1.1,9.84-1.86a65.32,65.32,0,0,0,8.53-2.46c4.22-1.59,8.37,4.15,5.8,7.6Zm36.53-77.44c-2.68,1.26-5.47,2.35-8.25,3.39-10.56,3.83-22.15,6.67-33.47,5.8-6.29-.5-12.8-2.08-18-5.8-5.9-4.16-9.67-10-11.92-16.73a4.88,4.88,0,0,1,.55-5.15A42.45,42.45,0,0,1,381.5,240a37.47,37.47,0,0,1,16-12.25c8.25-3.17,16.89-2.13,25.1.66,14.54,4.92,25.7,16.68,27.67,32.27.33,2.18-.22,4.7-2.52,5.74Z"/></g></g></svg>