<svg xmlns="http://www.w3.org/2000/svg" viewBox="0 0 347.2 411.05"><title>Horror / Thriller</title><g id="Layer_2" data-name="Layer 2"><g id="Layer_1-2" data-name="Layer 1"><path d="M173.6,0C77.84,0,0,77.84,0,173.6V377.44c0,16.8,18.48,27.44,33,19l49.28-29.12a22.25,22.25,0,0,1,23.52.56l56.56,39.2c7.84,5.6,17.92,5,25.76-.56l52.08-38.08c7.28-5,16.8-5.6,24.08-1.12l49.84,29.12c14.56,8.4,33-2.24,33-19V173.6A173.39,173.39,0,0,0,173.6,0Zm-79,222.32a40.88,40.88,0,1,1,40.88-40.88A41.11,41.11,0,0,1,94.64,222.32ZM152.32,56C107.52,58.8,75.6,98.56,75,99.12a8,8,0,0,1-6.72,3.36,7.82,7.82,0,0,1-5-1.68C59.92,98,58.8,92.4,62.16,89c1.68-1.68,37.52-46.48,89.6-49.28a9.05,9.05,0,0,1,9,7.84c0,3.92-3.92,7.84-8.4,8.4ZM253.68,222.32a40.88,40.88,0,1,1,40.88-40.88A41.11,41.11,0,0,1,253.68,222.32Z"/></g></g></svg>