<svg xmlns="http://www.w3.org/2000/svg" viewBox="0 0 445.23 472.13"><title>Musical</title><g id="Layer_2" data-name="Layer 2"><g id="Layer_1-2" data-name="Layer 1"><path d="M412.17.33,163.43,37.93a28.82,28.82,0,0,0-24.49,28.43V370.77c-14.64-7.71-32.9-12.49-53.06-12.49-47.43,0-85.88,25.51-85.88,57s38.45,56.9,85.88,56.9,85.87-25.48,85.87-56.9c0-1.25-.43-2.4-.54-3.6a15.26,15.26,0,0,0,.54-2.69V156.74a1.13,1.13,0,0,0,.26,0l240.41-36.35V298.67c-14.64-7.66-32.93-12.47-53.06-12.47-47.41,0-85.83,25.46-85.83,56.88s38.42,57,85.83,57,85.87-25.53,85.87-57c0-1.23-.43-2.38-.54-3.56a15.52,15.52,0,0,0,.54-2.68V28.78A28.77,28.77,0,0,0,412.16.33Z"/></g></g></svg>