<svg xmlns="http://www.w3.org/2000/svg" viewBox="0 0 241.71 354.17"><defs><style>.cls-1{fill-rule:evenodd;}</style></defs><title>Period Piece</title><g id="Layer_2" data-name="Layer 2"><g id="Layer_1-2" data-name="Layer 1"><path class="cls-1" d="M15.37,308h4.28c7.21-59,34.05-99.55,70.48-131.07-35.88-12-58-67-71.36-130.84h-3.4A15.38,15.38,0,0,1,0,30.73V15.36A15.38,15.38,0,0,1,15.37,0h211a15.43,15.43,0,0,1,15.36,15.36V30.73a15.38,15.38,0,0,1-15.12,15.36C213.2,109.92,191.11,165,155.23,176.93,191.66,208.45,218.5,249,225.63,308h.71a15.48,15.48,0,0,1,15.37,15.36v15.45a15.48,15.48,0,0,1-15.37,15.36h-211A15.43,15.43,0,0,1,0,338.81V323.36A15.43,15.43,0,0,1,15.36,308Zm189.68-7.92c-45.94-72.47-113-80.46-164.26-3.64,8.71-54.57,33.5-95,78.33-118.16-42.69-13.07-70-58.53-83.79-132.18H210c-13.86,73.65-41.11,119.11-83.8,132.18C172,202,197,243.69,205,300.09Z"/><path class="cls-1" d="M70.89,117.08l105.25-.32C148.18,173.55,102.57,180,70.89,117.08Z"/></g></g></svg>