<svg xmlns="http://www.w3.org/2000/svg" viewBox="0 0 699.99 551.02"><title>Sci-Fi / Fantasy</title><g id="Layer_2" data-name="Layer 2"><g id="Layer_1-2" data-name="Layer 1"><path d="M311.46,508.59A198.4,198.4,0,0,0,540.24,371.81a1261.31,1261.31,0,0,1-110.59,74.41,1243.9,1243.9,0,0,1-118.19,62.37Z"/><path d="M634.8,258.67c58.32-63.23,78-115.18,57-150.2-13.06-21.81-38.92-32.85-76.89-32.85-43,0-101.23,14.77-165.88,40.36a222.49,222.49,0,0,1,45.37,30.27c47.29-16.68,89.31-26.35,120.51-26.35,20.1,0,34.64,4.23,38.92,11.33,5.58,9.35,1,40.37-51.61,97.42-48.84,53-122.26,110-206.75,160.63C276.43,460.64,154.57,506.74,85,506.74c-20.11,0-34.65-4.23-38.92-11.36-5.6-9.32-1-40.31,51.61-97.37,10.89-11.83,23.2-23.85,36.39-36A219.38,219.38,0,0,1,129,307.63C105,327.89,83.45,348.19,65.2,368c-58.34,63.24-78,115.18-57,150.18C21.23,540,47.09,551,85.06,551c78.16,0,205.86-47.43,333.22-123.77,88-52.73,164.88-112.6,216.51-168.57Z"/><path d="M179.05,415.71a198.14,198.14,0,0,0,31.48,39.63c49-18.15,107.67-45.6,173.58-85.1C451,330.14,502.54,291.44,541,257.3A198.85,198.85,0,0,0,521,210.85C464.35,116.44,342,85.78,247.57,142.3s-125.09,179-68.52,273.41Z"/><path d="M88.52,167.73l24.75-45.25,45.26-24.76L113.27,73,88.52,27.72,63.77,73,18.51,97.72l45.26,24.76Z"/><path d="M243.51,62.61l11.07-20.24L274.81,31.3,254.58,20.23,243.51,0,232.44,20.23,212.2,31.3l20.24,11.07Z"/><path d="M636.81,452,619.3,484l-32,17.51,32,17.52,17.51,32,17.52-32,32-17.52-32-17.51Z"/></g></g></svg>